<?xml version="1.0" encoding="UTF-8"?><svg id="_레이어_2" xmlns="http://www.w3.org/2000/svg" viewBox="0 0 200 200"><defs>
<style>.cls-1{fill:none;}.cls-2{fill:#e6e6e6;}.cls-3{fill:#fff;}.cls-4{fill:#ffe7b8;}.cls-5{fill:#ffd371;}.cls-6{fill:#bbecff;}.cls-7{fill:#c2ffbb;}</style>
</defs><g id="_레이어_1-2"><g><rect class="cls-1" width="200" height="200"/><circle class="cls-5" cx="98.89" cy="42.52" r="14.82"/><path class="cls-3" d="M105.87,41.23h-1.32c-.11,0-.2-.11-.17-.22l.91-3.29c.03-.11-.05-.22-.17-.22h-1.24c-.08,0-.15,.05-.17,.13l-.87,3.47c-.02,.08-.09,.13-.17,.13h-1.89c-.08,0-.15-.05-.17-.13l-.91-3.47c-.02-.08-.09-.13-.17-.13h-1.31c-.08,0-.15,.05-.17,.13l-.91,3.47c-.02,.08-.09,.13-.17,.13h-1.89c-.08,0-.15-.05-.17-.13l-.87-3.47c-.02-.08-.09-.13-.17-.13h-1.24c-.11,0-.2,.11-.17,.22l.91,3.29c.03,.11-.05,.22-.17,.22h-1.32c-.1,0-.17,.08-.17,.17v.91c0,.1,.08,.17,.17,.17h1.76c.08,0,.15,.05,.17,.13l1.33,4.79c.02,.08,.09,.13,.17,.13h1.27c.08,0,.15-.05,.17-.13l1.35-4.79c.02-.07,.09-.13,.17-.13h1.2c.08,0,.15,.05,.17,.13l1.35,4.79c.02,.07,.09,.13,.17,.13h1.27c.08,0,.15-.05,.17-.13l1.33-4.79c.02-.08,.09-.13,.17-.13h1.76c.1,0,.17-.08,.17-.17v-.91c0-.1-.08-.17-.17-.17Zm-9.81,4.03h-.08l-.64-2.55c-.03-.11,.06-.22,.17-.22h1.06c.11,0,.2,.11,.17,.22l-.67,2.55Zm2.68-4.03c-.12,0-.2-.11-.17-.22l.27-.97h.08l.27,.97c.03,.11-.05,.22-.17,.22h-.29Zm3.06,4.03h-.08l-.67-2.55c-.03-.11,.05-.22,.17-.22h1.06c.11,0,.2,.11,.17,.22l-.64,2.55Z"/><rect class="cls-2" x="124.69" y="100.58" width="37.75" height="101.67" rx="4.21" ry="4.21" transform="translate(-7.85 294.98) rotate(-90)"/><path class="cls-3" d="M148.27,152.4l-8.29,4.76c-.76,.44-1.71-.11-1.71-.99v-9.52c0-.88,.95-1.42,1.71-.99l8.29,4.76c.76,.44,.76,1.54,0,1.98Z"/><rect class="cls-2" x="21.89" y="11.25" width="40.57" height="68.17" rx="3.57" ry="3.57"/><path class="cls-3" d="M48,46.56l-10.26,5.89c-.94,.54-2.11-.14-2.11-1.22v-11.78c0-1.08,1.17-1.76,2.11-1.22l10.26,5.89c.94,.54,.94,1.9,0,2.45Z"/><rect class="cls-2" x="152.2" y="33.61" width="18.14" height="40.97" rx="1.85" ry="1.85"/><path class="cls-3" d="M163.87,54.65l-4.59,2.63c-.42,.24-.94-.06-.94-.55v-5.27c0-.48,.52-.79,.94-.55l4.59,2.63c.42,.24,.42,.85,0,1.09Z"/><rect class="cls-2" x="9.11" y="153.35" width="25.56" height="25.68" rx="1.74" ry="1.74"/><path class="cls-3" d="M25.16,166.87l-5.76,3.31c-.53,.3-1.19-.08-1.19-.69v-6.62c0-.61,.66-.99,1.19-.69l5.76,3.31c.53,.3,.53,1.07,0,1.37Z"/><circle class="cls-4" cx="25.56" cy="92.37" r="5.68"/><circle class="cls-4" cx="182.66" cy="104.02" r="8.77"/><circle class="cls-7" cx="154.46" cy="86.69" r="2.26"/><circle class="cls-6" cx="70.3" cy="155.61" r="2.26"/><circle class="cls-6" cx="127.26" cy="66.45" r="2.26"/><circle class="cls-4" cx="139.76" cy="25.44" r="2.26"/><circle class="cls-4" cx="63.09" cy="185.4" r="3.73"/><circle class="cls-7" cx="28.94" cy="121.05" r="1.22"/></g></g></svg>