<?xml version="1.0" encoding="UTF-8"?><svg id="_레이어_2" xmlns="http://www.w3.org/2000/svg" viewBox="0 0 129.07 96.09"><defs><style>.cls-1{stroke:#c2ffbb;}.cls-1,.cls-2,.cls-3{stroke-linecap:round;stroke-width:3px;}.cls-1,.cls-2,.cls-3,.cls-4,.cls-5,.cls-6{stroke-miterlimit:10;}.cls-1,.cls-2,.cls-3,.cls-6{fill:none;}.cls-2{stroke:#ffe7b8;}.cls-3{stroke:#e6e6e6;}.cls-7,.cls-4{fill:#fff;}.cls-8,.cls-5{fill:#1152cc;}.cls-4,.cls-5,.cls-6{stroke:#1a1a1a;stroke-width:2px;}</style></defs><g id="_레이어_1-2"><g><g><path class="cls-7" d="M18.05,41.06c-5.03,1.72-7.72,7.19-6,12.23l4.06,11.89c1.72,5.03,7.19,7.72,12.23,6l16.16-5.52-10.28-30.12-16.16,5.52Z"/><path class="cls-8" d="M94.44,52.33l-12.56-36.78c-1.44-4.21-6.42-5.97-10.18-3.6l-37.49,23.6,10.28,30.12,44.09-4.25c4.42-.43,7.29-4.87,5.85-9.08Z"/></g><g><path class="cls-4" d="M10.16,52.35h4.27v18.06h-4.27c-4.98,0-9.03-4.05-9.03-9.03h0c0-4.98,4.05-9.03,9.03-9.03Z" transform="translate(-19.41 5.8) rotate(-18.85)"/><path class="cls-5" d="M34.55,68.07h10.33v22.32c0,2.85-2.31,5.17-5.17,5.17h0c-2.85,0-5.17-2.31-5.17-5.17v-22.32h0Z" transform="translate(-24.3 17.22) rotate(-18.85)"/><line class="cls-1" x1="91.71" y1="13.45" x2="110.64" y2="1.5"/><line class="cls-2" x1="97.44" y1="28.61" x2="110.64" y2="24.91"/><line class="cls-3" x1="104.26" y1="45.9" x2="127.57" y2="45.9"/><path class="cls-6" d="M94.44,52.33l-12.56-36.78c-1.44-4.21-6.42-5.97-10.18-3.6l-37.49,23.6-16.16,5.52c-5.03,1.72-7.72,7.19-6,12.23l4.06,11.89c1.72,5.03,7.19,7.72,12.23,6l16.16-5.52,44.09-4.25c4.42-.43,7.29-4.87,5.85-9.08Z"/></g></g></g></svg>