<?xml version="1.0" encoding="UTF-8"?><svg id="_레이어_2" xmlns="http://www.w3.org/2000/svg" viewBox="0 0 111.34 69.94"><defs><style>.cls-1{fill:#fff;}.cls-2{fill:#ffd371;}.cls-3{fill:#1152cc;}.cls-4{fill:#3074e2;}.cls-5{fill:none;stroke:#1a1a1a;stroke-miterlimit:10;stroke-width:2.2px;}</style></defs><g id="_레이어_1-2"><g><rect class="cls-4" x="1.1" y="16.46" width="109.14" height="47.09"/><g><path class="cls-3" d="M23.68,23.5c2.03-1.3,4.62-1.25,6.6,.11l29.88,20.61,18.87-9.76c1.86-.96,4.12-.87,5.9,.24l25.3,15.82V7.58c0-3.58-2.9-6.48-6.48-6.48H7.58C4,1.1,1.1,4,1.1,7.58v30.37l22.58-14.45Z"/><path class="cls-3" d="M81.74,40.58l-18.89,9.77c-1.96,1.02-4.31,.87-6.13-.39L26.88,29.38,1.1,45.88v16.49c0,3.58,2.9,6.48,6.48,6.48H103.76c3.58,0,6.48-2.9,6.48-6.48v-3.96l-28.5-17.82Z"/></g><circle class="cls-2" cx="83.36" cy="15.3" r="8"/><path class="cls-5" d="M103.76,1.1H7.58C4,1.1,1.1,4,1.1,7.58V62.37c0,3.58,2.9,6.48,6.48,6.48H103.76c3.58,0,6.48-2.9,6.48-6.48V7.58c0-3.58-2.9-6.48-6.48-6.48Z"/><path class="cls-1" d="M65.6,37.05l-17.47,10.03c-1.6,.92-3.6-.24-3.6-2.08V24.94c0-1.85,2-3,3.6-2.08l17.47,10.03c1.61,.92,1.61,3.24,0,4.17Z"/></g></g></svg>