<?xml version="1.0" encoding="UTF-8"?><svg id="_레이어_2" xmlns="http://www.w3.org/2000/svg" viewBox="0 0 87.13 70.31"><defs><style>.cls-1{fill:#fff;}.cls-2{fill:#a3c0ef;}.cls-3{fill:#1152cc;}.cls-4{fill:#1a1a1a;}</style></defs><g id="_레이어_1-2"><g><path class="cls-2" d="M58.46,.08l6.18,5.77c.2,.19,.07,.52-.21,.52h-12.36c-.28,0-.41-.34-.21-.52L58.05,.08c.12-.11,.3-.11,.41,0Z"/><rect class="cls-2" x="53.86" y="5.15" width="8.79" height="12.54"/><path class="cls-2" d="M42.77,2.66l6.18,5.77c.2,.19,.07,.52-.21,.52h-12.36c-.28,0-.41-.34-.21-.52l6.18-5.77c.12-.11,.3-.11,.41,0Z"/><rect class="cls-2" x="38.17" y="7.17" width="8.79" height="10.52"/><path class="cls-2" d="M27.08,5.23l6.18,5.77c.2,.19,.07,.52-.21,.52h-12.36c-.28,0-.41-.34-.21-.52l6.18-5.77c.12-.11,.3-.11,.41,0Z"/><rect class="cls-2" x="22.47" y="10.01" width="8.79" height="7.67"/><g><rect class="cls-3" x="1" y="17.44" width="85.13" height="51.87" rx="1.6" ry="1.6"/><path class="cls-4" d="M84.53,18.44c.33,0,.6,.27,.6,.6v48.67c0,.33-.27,.6-.6,.6H2.6c-.33,0-.6-.27-.6-.6V19.04c0-.33,.27-.6,.6-.6H84.53m0-2H2.6c-1.44,0-2.6,1.16-2.6,2.6v48.67c0,1.44,1.16,2.6,2.6,2.6H84.53c1.44,0,2.6-1.16,2.6-2.6V19.04c0-1.44-1.16-2.6-2.6-2.6h0Z"/></g><path class="cls-1" d="M52.59,45.27l-15.88,9.12c-1.46,.84-3.27-.22-3.27-1.89v-18.23c0-1.68,1.81-2.73,3.27-1.89l15.88,9.12c1.46,.84,1.46,2.95,0,3.79Z"/></g></g></svg>