<?xml version="1.0" encoding="UTF-8"?><svg id="_레이어_2" xmlns="http://www.w3.org/2000/svg" viewBox="0 0 200 200"><defs><style>.cls-1,.cls-2,.cls-3,.cls-4,.cls-5{fill:none;}.cls-2{stroke:#bbecff;}.cls-2,.cls-3,.cls-4{stroke-linecap:round;stroke-miterlimit:10;stroke-width:3px;}.cls-3{stroke:#c2ffbb;}.cls-4{stroke:#ffe7b8;}.cls-6{fill:#e6e6e6;}.cls-7{fill:#fff;}.cls-8{fill:#ffe7b8;}.cls-9{fill:#bbecff;}.cls-10{fill:#a3c0ef;}.cls-11{fill:#c2ffbb;}.cls-5{stroke:#a3c0ef;stroke-linejoin:round;stroke-width:6px;}</style></defs><g id="_레이어_1-2"><g><rect class="cls-1" width="200" height="200"/><path class="cls-5" d="M91.63,48.75h4.28c4.65,0,8.41,3.77,8.41,8.41v4.27"/><path class="cls-10" d="M104.12,65.27l-6.18-5.77c-.2-.19-.07-.52,.21-.52h12.36c.28,0,.41,.34,.21,.52l-6.18,5.77c-.12,.11-.3,.11-.41,0Z"/><circle class="cls-6" cx="170.46" cy="40.87" r="5.68"/><circle class="cls-6" cx="152.48" cy="177.93" r="5.68"/><circle class="cls-8" cx="138.52" cy="18.93" r="8.77"/><circle class="cls-11" cx="99.97" cy="175.67" r="2.26"/><circle class="cls-6" cx="133.2" cy="158.54" r="2.26"/><circle class="cls-9" cx="18.19" cy="97.94" r="2.26"/><circle class="cls-9" cx="141.62" cy="55.09" r="2.26"/><circle class="cls-8" cx="39.77" cy="115.96" r="3.73"/><line class="cls-3" x1="167.44" y1="63.6" x2="173.47" y2="57.63"/><line class="cls-4" x1="46.52" y1="151.67" x2="52.55" y2="145.7"/><line class="cls-2" x1="171.48" y1="70.95" x2="183.16" y2="68.63"/><g><path class="cls-6" d="M27.95,50.9c1.25-.8,2.86-.78,4.09,.07l18.5,12.76,11.68-6.04c1.15-.6,2.55-.54,3.65,.15l15.66,9.79v-26.59c0-2.21-1.79-4.01-4.01-4.01H17.98c-2.21,0-4.01,1.79-4.01,4.01v18.8l13.98-8.95Z"/><path class="cls-6" d="M63.88,61.47l-11.69,6.05c-1.21,.63-2.67,.54-3.79-.24l-18.47-12.74-15.96,10.21v10.21c0,2.21,1.79,4.01,4.01,4.01h59.54c2.21,0,4.01-1.79,4.01-4.01v-2.45l-17.64-11.03Z"/></g><circle class="cls-7" cx="64.89" cy="45.82" r="4.95"/><line class="cls-3" x1="46.52" y1="139.66" x2="29.56" y2="147.97"/></g></g></svg>