<?xml version="1.0" encoding="UTF-8"?><svg id="_레이어_2" xmlns="http://www.w3.org/2000/svg" viewBox="0 0 200 200"><defs><style>.cls-1,.cls-2,.cls-3{fill:none;}.cls-4{fill:#e6e6e6;}.cls-5{fill:#fff;}.cls-6{fill:#ffe7b8;}.cls-7{fill:#bbecff;}.cls-8{fill:#c2ffbb;}.cls-2{stroke-miterlimit:10;stroke-width:3.91px;}.cls-2,.cls-3{stroke:#e6e6e6;stroke-linecap:round;}.cls-3{stroke-linejoin:round;stroke-width:2px;}</style></defs><g id="_레이어_1-2"><g><rect class="cls-1" width="200" height="200"/><circle class="cls-6" cx="89.23" cy="75.89" r="8.77"/><rect class="cls-4" x="33.66" y="25.46" width="37.45" height="37.63" rx="18.73" ry="18.73" transform="translate(-7.73 11.25) rotate(-11.43)"/><path class="cls-5" d="M57.26,44.31l-7.27,6.38c-.67,.59-1.72,.23-1.89-.64l-1.91-9.44c-.18-.87,.65-1.6,1.5-1.32l9.18,3.06c.85,.28,1.07,1.37,.4,1.96Z"/><rect class="cls-4" x="117.98" y="148.91" width="37.45" height="37.63" rx="18.73" ry="18.73" transform="translate(-40.5 43.55) rotate(-15.8)"/><circle class="cls-8" cx="127.26" cy="124.84" r="2.26"/><circle class="cls-7" cx="31.23" cy="84.61" r="2.26"/><circle class="cls-7" cx="101.05" cy="161.79" r="2.26"/><circle class="cls-7" cx="188.49" cy="73.83" r="2.26"/><circle class="cls-8" cx="121.18" cy="45.5" r="1.22"/><circle class="cls-4" cx="42.78" cy="132.69" r="9.61"/><line class="cls-2" x1="56.5" y1="139.48" x2="67.48" y2="139.48"/><line class="cls-2" x1="36.85" y1="148.51" x2="67.48" y2="148.51"/><line class="cls-2" x1="36.85" y1="158.05" x2="67.48" y2="158.05"/><line class="cls-2" x1="36.85" y1="167.58" x2="67.48" y2="167.58"/><circle class="cls-5" cx="42.78" cy="131.06" r="2.47"/><path class="cls-5" d="M42.17,134.29h1.21c2.15,0,3.89,1.74,3.89,3.89v.78c0,1.13-.92,2.06-2.06,2.06h-4.89c-1.13,0-2.06-.92-2.06-2.06v-.78c0-2.15,1.74-3.89,3.89-3.89Z"/><g id="wB4RAu.tif"><path class="cls-5" d="M133.95,155.5c.15-.04,.31-.09,.46-.13,.05,0,.09,0,.14,0,1.3-.17,2.43,.54,2.87,1.77,.26,.72,.35,1.46,.35,2.22,0,.75,0,1.49,.02,2.24,0,.26,.07,.51,.12,.78,.07-.03,.11-.04,.15-.05,.78-.35,1.56-.73,2.36-1.04,.76-.3,1.56-.46,2.38-.46,1.49,0,2.58,1.01,2.5,2.55,0,.07,.05,.16,.11,.21,.3,.26,.55,.56,.72,.93,.29,.61,.28,1.24,.05,1.87-.04,.11-.05,.2,.02,.32,.6,.95,.62,1.92,.08,2.9-.06,.12-.07,.21-.03,.34,.07,.22,.14,.45,.16,.68,.09,1.01-.36,1.78-1.1,2.41-.74,.63-1.61,1.02-2.52,1.3-.61,.18-1.25,.3-1.86,.48-2.09,.61-4.21,1.05-6.36,1.37-.09,.01-.2,.06-.26,.12-.24,.25-.53,.42-.87,.52-.8,.23-1.6,.46-2.41,.68-.59,.16-1.15,.08-1.65-.3-.27-.2-.43-.48-.58-.77-.66-2.33-1.32-4.65-1.97-6.98,0-.1-.02-.2-.02-.3,0-.88,.49-1.54,1.34-1.79,.67-.2,1.34-.38,2-.57,.43-.12,.87-.27,1.34-.16,.02-.1,.03-.18,.05-.25,.15-.42,.25-.86,.47-1.25,.3-.53,.55-1.07,.72-1.65,.49-1.68,.75-3.41,.91-5.15,.01-.15-.02-.3-.06-.45-.06-.27-.16-.52-.21-.79-.11-.64-.02-1.21,.59-1.59Zm.86,19.44s.06,0,.09-.01c1.09-.21,2.2-.37,3.28-.64,1.61-.39,3.2-.83,4.79-1.29,.65-.19,1.23-.54,1.73-1.01,.57-.55,.72-1.18,.38-1.85-.19-.37-.15-.65,.08-.98,.47-.66,.45-1.42-.06-2.01-.26-.31-.29-.59-.12-.95,.37-.78,.18-1.41-.53-1.89-.39-.26-.44-.38-.35-.83,.16-.83-.28-1.45-1.12-1.49-.45-.02-.92,.04-1.37,.13-1.18,.25-2.25,.79-3.3,1.36-.52,.28-1.12,.11-1.34-.44-.16-.39-.29-.81-.32-1.23-.06-.82-.04-1.64-.04-2.46,0-.62-.06-1.22-.27-1.81-.28-.76-.83-1.13-1.61-1.06-.24,.02-.28,.07-.23,.3,.06,.26,.14,.51,.21,.77,.05,.18,.12,.36,.11,.54-.13,1.65-.36,3.29-.76,4.9-.21,.86-.46,1.72-.94,2.48-.23,.38-.39,.78-.46,1.21-.04,.25-.05,.52,0,.77,.04,.23,.17,.43,.24,.66,.65,2.27,1.29,4.53,1.93,6.82Zm-5.9-2.36c.3,1.07,.61,2.14,.91,3.22,.15,.54,.43,.69,.96,.54,.76-.21,1.52-.43,2.27-.64,.48-.14,.64-.43,.51-.91-.61-2.16-1.22-4.33-1.84-6.49-.14-.48-.43-.64-.91-.51-.77,.22-1.54,.43-2.31,.65-.48,.14-.64,.43-.51,.91,.3,1.08,.61,2.16,.92,3.24Z"/></g><rect class="cls-4" x="162.19" y="108.75" width="17.12" height="17.21" rx="8.56" ry="8.56" transform="translate(65.23 -60.95) rotate(24.88)"/><g id="YmDEXI.tif"><path class="cls-5" d="M170.41,113.49c.09,.04,.19,.09,.28,.13,.09,.07,.18,.13,.27,.2,.35,.3,.55,.69,.65,1.14,.03,.13,.05,.27,.07,.41,.12-.07,.24-.15,.36-.21,.45-.24,.91-.33,1.41-.22,.06,.02,.13,.03,.19,.05l.28,.13c.13,.1,.27,.18,.39,.29,.54,.53,.71,1.17,.58,1.9-.03,.15-.08,.29-.11,.43l-.13,.28s-.02,.03-.03,.05c-.22,.39-.54,.69-.92,.92-.41,.25-.85,.44-1.31,.58-.95,.29-1.9,.56-2.84,.83-.17,.05-.26,0-.34-.16-.35-.77-.7-1.54-1.04-2.31-.25-.57-.47-1.15-.57-1.77-.12-.82,.07-1.55,.65-2.15,.5-.52,1.11-.74,1.84-.62,.11,.02,.22,.06,.33,.09Z"/></g><polyline class="cls-3" points="90.1 28.76 95.29 28.76 78.38 43.75 75.31 40.68 70.3 45.68"/><line class="cls-3" x1="95.29" y1="33.52" x2="95.29" y2="28.76"/></g></g></svg>