<svg xmlns="http://www.w3.org/2000/svg" width="24" height="24" viewBox="0 0 24 24">
  <g id="그룹_617" data-name="그룹 617" transform="translate(-847 -159)">
    <circle id="타원_148" data-name="타원 148" cx="12" cy="12" r="12" transform="translate(847 159)" fill="none"/>
    <path id="패스_837" data-name="패스 837" d="M10.8.379.841,7.436A1.974,1.974,0,0,0,0,9.045V22.737A1.278,1.278,0,0,0,1.293,24H6.706A1.28,1.28,0,0,0,8,22.737V16.9a1.278,1.278,0,0,1,1.293-1.263h5.413A1.278,1.278,0,0,1,16,16.9v5.835A1.278,1.278,0,0,0,17.293,24h5.414A1.278,1.278,0,0,0,24,22.737V9.045a1.974,1.974,0,0,0-.841-1.609L13.2.379a2.077,2.077,0,0,0-2.391,0" transform="translate(847 158.999)" fill="#e0e0e0"/>
    <rect id="사각형_1637" data-name="사각형 1637" width="14.216" height="14.556" transform="translate(851.892 163.722)" fill="rgba(0,0,0,0)"/>
  </g>
</svg>
