<svg xmlns="http://www.w3.org/2000/svg" width="24" height="24" viewBox="0 0 24 24">
  <g id="그룹_616" data-name="그룹 616" transform="translate(-1567.581 -4434.94)">
    <path id="패스_6" data-name="패스 6" d="M129.805,123.954l3.5-1.982-3.5-1.982Z" transform="translate(1448.51 4324.968)" fill="#363636"/>
    <path id="패스_7" data-name="패스 7" d="M12,0A12,12,0,1,0,24,12,12,12,0,0,0,12,0m7.552,15.794a1.975,1.975,0,0,1-1.394,1.394A47.109,47.109,0,0,1,12,17.517a47.112,47.112,0,0,1-6.159-.329,1.975,1.975,0,0,1-1.394-1.394A20.52,20.52,0,0,1,4.118,12a20.519,20.519,0,0,1,.329-3.794A1.974,1.974,0,0,1,5.841,6.812,47.1,47.1,0,0,1,12,6.483a47.1,47.1,0,0,1,6.159.329,1.974,1.974,0,0,1,1.394,1.394A20.51,20.51,0,0,1,19.882,12a20.51,20.51,0,0,1-.329,3.794" transform="translate(1567.581 4434.94)" fill="#363636"/>
    <rect id="사각형_69" data-name="사각형 69" width="24" height="24" transform="translate(1567.581 4434.94)" fill="none"/>
  </g>
</svg>
