<svg xmlns="http://www.w3.org/2000/svg" width="24" height="24" viewBox="0 0 24 24">
  <g id="그룹_43" data-name="그룹 43" transform="translate(-1599.479 -4434.94)">
    <path id="패스_3" data-name="패스 3" d="M19.07,0H4.93A4.93,4.93,0,0,0,0,4.931V19.07A4.93,4.93,0,0,0,4.93,24H19.07A4.93,4.93,0,0,0,24,19.07V4.931A4.931,4.931,0,0,0,19.07,0m1.98,15.474a5.576,5.576,0,0,1-5.577,5.576H8.527A5.576,5.576,0,0,1,2.95,15.474V8.528A5.577,5.577,0,0,1,8.527,2.95h6.947A5.577,5.577,0,0,1,21.05,8.528Z" transform="translate(1599.479 4434.94)" fill="#e0e0e0"/>
    <path id="패스_4" data-name="패스 4" d="M64.675,53.623H58.539A4.95,4.95,0,0,0,53.614,58.6v6.2a4.949,4.949,0,0,0,4.925,4.973h6.135A4.949,4.949,0,0,0,69.6,64.792V58.6a4.95,4.95,0,0,0-4.925-4.973m-2.8,13.367a5.262,5.262,0,1,1,5.21-5.262,5.237,5.237,0,0,1-5.21,5.262m4.849-9.267a1.338,1.338,0,1,1,1.326-1.338,1.331,1.331,0,0,1-1.326,1.338" transform="translate(1549.872 4385.247)" fill="#e0e0e0"/>
    <path id="패스_5" data-name="패스 5" d="M109.691,104.832a2.4,2.4,0,1,0,2.452,2.4,2.428,2.428,0,0,0-2.452-2.4" transform="translate(1502.042 4339.737)" fill="#e0e0e0"/>
    <rect id="사각형_68" data-name="사각형 68" width="24" height="24" transform="translate(1599.479 4434.94)" fill="none"/>
  </g>
</svg>
