<svg width="14" height="14" viewBox="0 0 14 14" fill="none" xmlns="http://www.w3.org/2000/svg">
<g clip-path="url(#clip0_52_24812)">
<path d="M4.38759 7.83574C4.40708 7.7678 4.45257 7.72346 4.50305 7.72346L5.87234 7.72346L5.87234 3.18168C5.87234 3.08139 5.92832 3 5.9973 3L7.99663 3C8.06561 3 8.1216 3.08139 8.1216 3.18168L8.1216 7.72348L9.49613 7.72348C9.54661 7.72348 9.5921 7.76781 9.61159 7.8354C9.63084 7.90334 9.62034 7.98146 9.5846 8.03342L7.09169 11.6698C7.0682 11.7039 7.03645 11.7232 7.00321 11.7232C6.96998 11.7232 6.93823 11.7039 6.91474 11.6701L4.41458 8.03378C4.37883 7.9818 4.36809 7.90369 4.38759 7.83574Z" fill="#C52C26"/>
</g>
<circle cx="7" cy="7" r="6.5" stroke="#C52C26"/>
<defs>
<clipPath id="clip0_52_24812">
<rect width="6" height="8.72316" fill="white" transform="matrix(-1 -8.74228e-08 -8.74228e-08 1 10 3)"/>
</clipPath>
</defs>
</svg>
