<svg width="74" height="75" viewBox="0 0 74 75" fill="none" xmlns="http://www.w3.org/2000/svg">
<path d="M37.1564 52.9001H32.3474C31.7462 52.9001 31.2588 53.3874 31.2588 53.9887C31.2588 54.5901 31.7462 55.0773 32.3474 55.0773H37.1564C37.7576 55.0773 38.245 54.5901 38.245 53.9887C38.245 53.3874 37.7576 52.9001 37.1564 52.9001Z" fill="white"/>
<path d="M56.0803 12.0228C52.8283 12.0228 50.1826 14.6685 50.1826 17.9205C50.1826 21.1724 52.8283 23.8183 56.0803 23.8183C59.3322 23.8183 61.9779 21.1724 61.9779 17.9205C61.9779 14.6685 59.3324 12.0228 56.0803 12.0228ZM56.0803 21.6411C54.0288 21.6411 52.3598 19.9721 52.3598 17.9205C52.3598 15.869 54.0288 14.2 56.0803 14.2C58.1317 14.2 59.8007 15.869 59.8007 17.9205C59.8009 19.9721 58.1319 21.6411 56.0803 21.6411Z" fill="white"/>
<path d="M56.0789 7.21362C50.1752 7.21362 45.3721 12.0167 45.3721 17.9205C45.3721 23.8242 50.1752 28.6273 56.0789 28.6273C61.9827 28.6273 66.7858 23.8242 66.7858 17.9205C66.7858 12.0167 61.9827 7.21362 56.0789 7.21362ZM56.0789 26.45C51.3757 26.45 47.5492 22.6237 47.5492 17.9203C47.5492 13.2169 51.3758 9.39078 56.0789 9.39078C60.782 9.39078 64.6086 13.2171 64.6086 17.9205C64.6086 22.6239 60.7822 26.45 56.0789 26.45Z" fill="white"/>
<path d="M72.0858 13.0726L70.812 12.8601C70.7717 12.8534 70.7366 12.8207 70.7206 12.775C70.526 12.2208 70.2971 11.6716 70.04 11.1432C70.0185 11.0989 70.0197 11.0523 70.0432 11.0185L70.7858 9.95094C71.4201 9.03943 71.3105 7.80788 70.5252 7.0228L66.921 3.41858C66.1258 2.62334 64.8845 2.52086 63.9695 3.1743L62.919 3.9247C62.8852 3.94865 62.8383 3.95024 62.7931 3.92876C62.2635 3.67432 61.7133 3.44804 61.1579 3.25587C61.1125 3.2402 61.0797 3.20565 61.0726 3.16588L60.843 1.88615C60.6469 0.793213 59.6987 0 58.5883 0H53.4913C52.3667 0 51.4164 0.805115 51.2317 1.91431L51.0193 3.18809C51.0126 3.22844 50.98 3.26357 50.934 3.27968C50.3797 3.47432 49.8307 3.70335 49.3023 3.9604C49.2581 3.98159 49.2116 3.98058 49.1776 3.95692L48.1101 3.21436C47.1984 2.58023 45.967 2.6901 45.1821 3.47504L41.5778 7.07926C41.5344 7.12266 41.4941 7.16794 41.4548 7.21381H5.89764C2.64569 7.21381 0 9.8595 0 13.1116V18.8522C0 19.4535 0.487394 19.9408 1.08858 19.9408C1.68977 19.9408 2.17716 19.4535 2.17716 18.8522V13.1113C2.17716 11.0597 3.84617 9.39068 5.89764 9.39068H41.0145C41.0858 9.61406 41.1905 9.83032 41.3334 10.0305L42.0837 11.0807C42.1075 11.1141 42.1091 11.1623 42.0879 11.2066C41.9594 11.4739 41.8384 11.7467 41.7249 12.0227H8.30195C6.37575 12.0227 4.80877 13.5897 4.80877 15.5158V48.0909H2.17716V23.9319C2.17716 23.3306 1.68977 22.8434 1.08858 22.8434C0.487394 22.8434 0 23.3306 0 23.9319V53.989C0 57.2409 2.64569 59.8868 5.89764 59.8868H25.2475V67.3279H19.0814C17.8408 67.3279 16.8316 68.3371 16.8316 69.5776V72.0641C16.8316 73.3046 17.8408 74.3138 19.0814 74.3138H23.8295C24.4307 74.3138 24.9181 73.8265 24.9181 73.2252C24.9181 72.6239 24.4307 72.1366 23.8295 72.1366H19.0814C19.0413 72.1366 19.0088 72.104 19.0088 72.0641V69.5775C19.0088 69.5375 19.0413 69.5049 19.0814 69.5049H50.4228C50.4628 69.5049 50.4954 69.5375 50.4954 69.5775V72.0641C50.4954 72.104 50.4628 72.1366 50.4228 72.1366H28.9097C28.3085 72.1366 27.8211 72.6239 27.8211 73.2252C27.8211 73.8265 28.3085 74.3138 28.9097 74.3138H50.4228C51.6633 74.3138 52.6725 73.3046 52.6725 72.0641V69.5775C52.6725 68.3369 51.6633 67.3277 50.4228 67.3277H44.2566V59.8866H63.6064C66.8583 59.8866 69.504 57.2408 69.504 53.9888V29.8393L70.5813 28.7621C71.3765 27.9671 71.4794 26.7257 70.8257 25.8105L70.0754 24.7601C70.0516 24.7269 70.05 24.6786 70.0712 24.6343C70.3257 24.1045 70.5521 23.5543 70.7441 22.9988C70.7598 22.9535 70.7943 22.9209 70.8343 22.9136L72.1137 22.684C73.2066 22.4879 74 21.5397 74 20.4292V15.3322C74 14.2076 73.1949 13.2572 72.0858 13.0726ZM6.98593 15.5159C6.98593 14.7903 7.57623 14.2 8.30195 14.2H38.5073C38.2866 14.5537 38.159 14.9693 38.159 15.4118V20.5089C38.159 21.6333 38.9639 22.5837 40.0733 22.7686L41.3466 22.9807C41.3871 22.9875 41.4224 23.0202 41.4385 23.0662C41.6333 23.6206 41.8622 24.1698 42.1191 24.698C42.1406 24.7421 42.1393 24.7887 42.1157 24.8224L41.3732 25.8899C40.7389 26.8013 40.8485 28.033 41.6337 28.8182L45.2378 32.4223C46.033 33.2175 47.2742 33.3199 48.1893 32.6666L49.2394 31.9163C49.2727 31.8924 49.3211 31.8906 49.3653 31.9121C49.8947 32.1664 50.4451 32.3928 51.001 32.5851C51.0471 32.601 51.0788 32.6348 51.0861 32.6753L51.3157 33.9549C51.5119 35.0478 52.4602 35.841 53.5705 35.841H58.6677C59.7921 35.841 60.7425 35.0359 60.9273 33.9267L61.1395 32.6532C61.1462 32.6129 61.179 32.5777 61.2248 32.5615C61.6614 32.4082 62.0945 32.2327 62.5178 32.0397V48.0912H6.98564V15.5159H6.98593ZM36.068 67.3277H33.4361V64.8089C33.4361 64.746 33.4872 64.6951 33.5498 64.6951H35.9544C36.0171 64.6951 36.068 64.7462 36.068 64.8089V67.3277ZM42.0793 67.3277H38.2452V64.8089C38.2452 63.5457 37.2176 62.5179 35.9544 62.5179H33.5498C32.2866 62.5179 31.259 63.5457 31.259 64.8089V67.3277H27.4247V59.8866H42.0793V67.3277ZM63.6064 57.7096H5.89764C3.84617 57.7096 2.17716 56.0406 2.17716 53.989V50.2682H67.3269V53.989C67.3269 56.0406 65.6578 57.7096 63.6064 57.7096ZM67.3269 48.091H64.6952V32.9377C65.4855 33.1769 66.3663 32.9769 66.9772 32.3661L67.3269 32.0165V48.091ZM71.8228 20.4292C71.8228 20.4843 71.7835 20.5314 71.7292 20.5411L70.4496 20.7707C69.6352 20.9169 68.9596 21.4979 68.6866 22.287C68.5215 22.764 68.327 23.2367 68.1086 23.6916C67.7436 24.4516 67.8183 25.3459 68.3037 26.0255L69.0539 27.0759C69.0863 27.1212 69.0814 27.1827 69.0419 27.2222L65.4377 30.8264C65.3985 30.8655 65.3375 30.8709 65.2922 30.8394L64.2248 30.0969C64.2235 30.0959 64.2219 30.0952 64.2206 30.0942C64.2144 30.0898 64.2077 30.0859 64.2013 30.0817C63.5251 29.6235 62.6481 29.5618 61.9053 29.9226C61.451 30.1434 60.9794 30.3401 60.5035 30.5071C59.7087 30.7865 59.1297 31.4716 58.9922 32.295L58.78 33.5686C58.7707 33.6237 58.7237 33.6636 58.668 33.6636H53.5708C53.5158 33.6636 53.4686 33.6242 53.4589 33.57L53.2293 32.2904C53.083 31.4758 52.502 30.8003 51.713 30.5276C51.2356 30.3624 50.7631 30.1679 50.3081 29.9496C49.9884 29.7959 49.6448 29.7203 49.3034 29.7203C48.8337 29.7203 48.3681 29.8637 47.9743 30.1448L46.9241 30.8952C46.8787 30.9273 46.817 30.9222 46.7776 30.8829L43.1734 27.2788C43.1345 27.2398 43.129 27.1788 43.1605 27.1335L43.9032 26.0659C44.3758 25.3863 44.4426 24.4974 44.0772 23.7462C43.8566 23.2924 43.6599 22.821 43.4927 22.3448C43.2135 21.5498 42.5285 20.9709 41.7048 20.8333L40.4314 20.6212C40.3763 20.6121 40.3363 20.5647 40.3363 20.509V15.412C40.3363 15.3568 40.3758 15.3098 40.4299 15.3001L41.7093 15.0705C42.4854 14.9313 43.1345 14.3967 43.4303 13.6642C43.4956 13.5536 43.5419 13.4306 43.5649 13.2994C43.709 12.9088 43.8711 12.523 44.0505 12.1496C44.4156 11.3896 44.3407 10.4952 43.8553 9.81566L43.1051 8.7654C43.0725 8.72011 43.0778 8.65843 43.1171 8.61895L46.7213 5.01458C46.7602 4.97554 46.8213 4.97017 46.8666 5.00181L47.9341 5.74422C48.6137 6.21696 49.5026 6.28373 50.254 5.91854C50.708 5.69792 51.1794 5.50111 51.6552 5.33405C52.4503 5.05493 53.0296 4.36971 53.1667 3.54631L53.3791 2.27252C53.3882 2.21751 53.4354 2.1776 53.4911 2.1776H58.5882C58.6433 2.1776 58.6903 2.21693 58.7001 2.27107L58.9298 3.55081C59.076 4.36506 59.6569 5.04071 60.4461 5.31373C60.9232 5.47876 61.3958 5.67325 61.8506 5.89155C62.6107 6.25687 63.5051 6.18227 64.1846 5.69647L65.235 4.94608C65.2805 4.91371 65.342 4.91879 65.3815 4.95841L68.9857 8.56263C69.0246 8.60153 69.03 8.66249 68.9985 8.70778L68.2558 9.77546C67.7832 10.4549 67.7164 11.3437 68.0817 12.0952C68.3025 12.5492 68.499 13.0207 68.6662 13.4967C68.9455 14.2916 69.6306 14.8707 70.454 15.0078L71.7279 15.2202C71.7829 15.2292 71.8228 15.2766 71.8228 15.3322V20.4292Z" fill="white"/>
<path d="M28.8232 22.8434H13.0291C11.1483 22.8434 9.61816 24.3735 9.61816 26.2543V42.0483C9.61816 43.9291 11.1483 45.4592 13.0291 45.4592H28.8231C30.7038 45.4592 32.2339 43.9291 32.2339 42.0483V26.2543C32.2341 24.3735 30.704 22.8434 28.8232 22.8434ZM30.0569 39.3818L23.3234 35.0969L25.1429 33.2774C25.184 33.2363 25.2489 33.2324 25.2945 33.2688L30.0569 37.0788V39.3818ZM13.0291 25.0205H28.8231C29.5033 25.0205 30.0568 25.574 30.0568 26.2543V34.2909L26.6543 31.5689C25.7416 30.8389 24.43 30.9115 23.6034 31.7378L21.4418 33.8994L19.2614 32.512C18.4129 31.9716 17.2895 32.0554 16.5262 32.7178L11.7955 36.8607V26.2543C11.7953 25.574 12.3488 25.0205 13.0291 25.0205ZM28.8232 43.282H13.0291C12.3488 43.282 11.7953 42.7284 11.7953 42.0483V39.7546L17.9567 34.3588C17.9946 34.3262 18.0503 34.3218 18.0925 34.3487L20.9924 36.194C20.9951 36.1958 20.9979 36.1975 21.0005 36.1993L30.0568 41.9623V42.0483C30.0569 42.7286 29.5035 43.282 28.8232 43.282Z" fill="white"/>
<path d="M49.22 38.4729H37.115C35.8744 38.4729 34.8652 39.4821 34.8652 40.7226V43.2092C34.8652 44.4498 35.8744 45.459 37.115 45.459H49.22C50.4605 45.459 51.4697 44.4498 51.4697 43.2092V40.7226C51.4699 39.4822 50.4605 38.4729 49.22 38.4729ZM49.2926 43.2092C49.2926 43.2492 49.2601 43.2818 49.22 43.2818H37.115C37.0749 43.2818 37.0424 43.2492 37.0424 43.2092V40.7226C37.0424 40.6827 37.0749 40.6501 37.115 40.6501H49.22C49.2601 40.6501 49.2926 40.6827 49.2926 40.7226V43.2092Z" fill="white"/>
</svg>
