<svg width="94" height="25" viewBox="0 0 94 25" fill="none" xmlns="http://www.w3.org/2000/svg">
<path d="M12.394 24.0341L0 0.00177002H1.35705L12.394 21.3366L23.4334 0.00177002H29.9739V22.822H52.4756C58.4338 22.822 63.2821 17.9761 63.2821 12.0179C63.2821 6.06214 58.4338 1.21147 52.4756 1.21147H34.5393V0.00177002H52.4756C59.1016 0.00177002 64.4918 5.39193 64.4918 12.0179C64.4918 18.6439 59.1016 24.0341 52.4756 24.0341H28.7618V1.21147H24.1797L12.394 24.0341Z" fill="#002E85"/>
<path d="M81.0976 24.0365C74.4716 24.0365 69.0791 18.6463 69.0791 12.0203C69.0791 5.39431 74.4716 0.00177002 81.0976 0.00177002C87.7236 0.00177002 93.1138 5.39431 93.1138 12.0203C93.1138 18.6463 87.7236 24.0365 81.0976 24.0365ZM81.0976 1.21384C75.1395 1.21384 70.2912 6.06214 70.2912 12.0203C70.2912 17.9785 75.1395 22.8244 81.0976 22.8244C87.0558 22.8244 91.9017 17.9785 91.9017 12.0203C91.9017 6.06214 87.0558 1.21384 81.0976 1.21384Z" fill="#002E85"/>
</svg>
