<svg id="레이어_1" data-name="레이어 1" xmlns="http://www.w3.org/2000/svg" viewBox="0 0 47.85 48.13"><defs><style>.cls-1{fill:#efd925;}.cls-2{fill:#050203;}</style></defs><path class="cls-1" d="M48.93,38.36a10.68,10.68,0,0,1-10.65,10.7H11.72A10.68,10.68,0,0,1,1.07,38.36V11.64A10.68,10.68,0,0,1,11.72.94H38.28a10.68,10.68,0,0,1,10.65,10.7Z" transform="translate(-1.07 -0.94)"/><path class="cls-1" d="M25,11.44c-8.36,0-15.14,6.27-15.14,14,0,5.71,2.39,8.44,5.67,10.92h0v6.7a.39.39,0,0,0,.62.31l5.74-4.26.12.05a16.19,16.19,0,0,0,3,.27c8.35,0,15.13-6.27,15.13-14s-6.78-14-15.13-14" transform="translate(-1.07 -0.94)"/><path class="cls-2" d="M25,9.39c-8.36,0-15.14,6.26-15.14,14,0,5.71,2.39,8.43,5.67,10.92h0V41a.39.39,0,0,0,.62.31l5.74-4.26.12,0a16.19,16.19,0,0,0,3,.27c8.35,0,15.13-6.26,15.13-14s-6.78-14-15.13-14M19.9,26.93A3.17,3.17,0,0,0,23,24.67h2.19A5.25,5.25,0,0,1,19.9,29a5.67,5.67,0,1,1,0-11.34,5.25,5.25,0,0,1,5.35,4.45H23.06a3.12,3.12,0,0,0-3.16-2.37,3.42,3.42,0,0,0-3.56,3.59,3.51,3.51,0,0,0,3.56,3.56m14.46,1.9h-2V24.29a1.45,1.45,0,0,0-1.54-1.61c-1,0-1.72.64-1.72,1.94v4.21h-2V17.73h2V21.9a2.58,2.58,0,0,1,2.32-1.09,2.77,2.77,0,0,1,2.11.86A3.25,3.25,0,0,1,34.36,24Z" transform="translate(-1.07 -0.94)"/></svg>