<svg id="그룹_2" data-name="그룹 2" xmlns="http://www.w3.org/2000/svg" xmlns:xlink="http://www.w3.org/1999/xlink" width="86.343" height="36" viewBox="0 0 86.343 36">
  <defs>
    <clipPath id="clip-path">
      <rect id="사각형_45" data-name="사각형 45" width="86.343" height="36" fill="none"/>
    </clipPath>
  </defs>
  <g id="그룹_1" data-name="그룹 1" clip-path="url(#clip-path)">
    <path id="패스_1" data-name="패스 1" d="M140.667,37.079a8.571,8.571,0,0,0,7.863-12.03l-25.757,3.264v8.766Z" transform="translate(-92.788 -18.931)" fill="#002e85"/>
    <path id="패스_2" data-name="패스 2" d="M255.295,17.987a8.5,8.5,0,0,0-1.25,4.4,8.593,8.593,0,0,0,17.186,0c0-.236-.051-.459-.07-.69L263.3,16.972Z" transform="translate(-192 -12.827)" fill="#002e85"/>
    <path id="패스_3" data-name="패스 3" d="M80.186,25.911c0,.025.008.048.008.074a9.556,9.556,0,0,1-19.112,0,9.439,9.439,0,0,1,1.041-4.248l-5.393.684A9.523,9.523,0,0,1,47.879,35.54H29.021V25.933L20.4,27.025l-4.4,8.515L12.153,28.07,0,29.611V52.428l71.3-9.037,15.038,9.037V29.611Z" transform="translate(0 -16.428)" fill="#002e85"/>
    <path id="패스_4" data-name="패스 4" d="M60.019,44l-6.04.765L56.8,50.221Z" transform="translate(-40.796 -33.254)" fill="#002e85"/>
    <path id="패스_5" data-name="패스 5" d="M151.9,0H137.639V.963H151.9a8.6,8.6,0,0,1,7.863,5.154l.988-.125A9.558,9.558,0,0,0,151.9,0" transform="translate(-104.024)" fill="#002e85"/>
    <path id="패스_6" data-name="패스 6" d="M84.864.963h3.644V9.5l.963-.122V0h-5.2L78.71,10.746l1.179-.149Z" transform="translate(-59.487 0)" fill="#002e85"/>
    <path id="패스_7" data-name="패스 7" d="M26.255,0H25.176l6,11.642,1.03-.13Z" transform="translate(-19.027 0)" fill="#002e85"/>
    <path id="패스_8" data-name="패스 8" d="M262.879.963a8.576,8.576,0,0,1,8.523,7.9l1.026.616a9.524,9.524,0,0,0-18.064-4.174l1.172-.149a8.569,8.569,0,0,1,7.343-4.2" transform="translate(-192.241)" fill="#002e85"/>
    <path id="패스_9" data-name="패스 9" d="M133.7,137.487l.781,1.949.781-1.949h.408v2.389h-.315v-.93l.029-1-.784,1.935h-.241l-.783-1.929.031,1v.93H133.3v-2.389Z" transform="translate(-100.741 -103.909)" fill="#002e85"/>
    <path id="패스_10" data-name="패스 10" d="M147.69,138.772h-1.035v.847h1.2v.257H146.34v-2.389h1.5v.258h-1.186v.769h1.035Z" transform="translate(-110.599 -103.909)" fill="#002e85"/>
    <path id="패스_11" data-name="패스 11" d="M155.191,139.876v-2.389h.674a1.087,1.087,0,0,1,.551.138.937.937,0,0,1,.37.392,1.276,1.276,0,0,1,.132.584v.152a1.282,1.282,0,0,1-.13.593.917.917,0,0,1-.372.39,1.154,1.154,0,0,1-.564.14Zm.315-2.131v1.874h.331a.722.722,0,0,0,.567-.227.937.937,0,0,0,.2-.645v-.14a.951.951,0,0,0-.191-.633.68.68,0,0,0-.542-.229Z" transform="translate(-117.289 -103.909)" fill="#002e85"/>
    <rect id="사각형_44" data-name="사각형 44" width="0.315" height="2.389" transform="translate(40.38 33.578)" fill="#002e85"/>
    <path id="패스_12" data-name="패스 12" d="M170.622,139.251h-1l-.225.625h-.325l.912-2.389h.276l.914,2.389h-.323Zm-.906-.258h.812l-.407-1.117Z" transform="translate(-127.78 -103.909)" fill="#002e85"/>
    <path id="패스_13" data-name="패스 13" d="M185.067,139.251h-1l-.225.625h-.325l.912-2.389h.276l.914,2.389H185.3Zm-.906-.258h.812l-.407-1.117Z" transform="translate(-138.697 -103.909)" fill="#002e85"/>
    <path id="패스_14" data-name="패스 14" d="M195.343,138.909h-.561v.966h-.317v-2.389h.791a.935.935,0,0,1,.621.184.661.661,0,0,1,.218.535.645.645,0,0,1-.121.389.722.722,0,0,1-.336.247l.561,1.014v.02h-.338Zm-.561-.258h.484a.547.547,0,0,0,.373-.121.411.411,0,0,0,.139-.326.434.434,0,0,0-.132-.34.559.559,0,0,0-.382-.12h-.482Z" transform="translate(-146.971 -103.908)" fill="#002e85"/>
    <path id="패스_15" data-name="패스 15" d="M204.479,137.745h-.768v2.131H203.4v-2.131h-.766v-.258h1.847Z" transform="translate(-153.143 -103.908)" fill="#002e85"/>
    <path id="패스_16" data-name="패스 16" d="M218.427,138.657a1.476,1.476,0,0,1-.118.613.894.894,0,0,1-.335.4.924.924,0,0,1-1.345-.4,1.415,1.415,0,0,1-.124-.595v-.172a1.46,1.46,0,0,1,.12-.609.885.885,0,0,1,.84-.545.927.927,0,0,1,.506.138.893.893,0,0,1,.337.4,1.483,1.483,0,0,1,.118.613Zm-.313-.154a1.071,1.071,0,0,0-.171-.652.607.607,0,0,0-.948,0,1.052,1.052,0,0,0-.176.631v.176a1.073,1.073,0,0,0,.173.647.607.607,0,0,0,.949.013,1.067,1.067,0,0,0,.172-.637Z" transform="translate(-163.629 -103.807)" fill="#002e85"/>
    <path id="패스_17" data-name="패스 17" d="M228.2,137.745h-.768v2.131h-.313v-2.131h-.766v-.258H228.2Z" transform="translate(-171.07 -103.908)" fill="#002e85"/>
    <path id="패스_18" data-name="패스 18" d="M237.548,137.745h-.768v2.131h-.313v-2.131H235.7v-.258h1.847Z" transform="translate(-178.136 -103.908)" fill="#002e85"/>
    <path id="패스_19" data-name="패스 19" d="M250.232,138.941v.935h-.315v-2.389h.881a.886.886,0,0,1,.615.2.68.68,0,0,1,.222.53.67.67,0,0,1-.217.536.925.925,0,0,1-.623.188Zm0-.258h.566a.567.567,0,0,0,.387-.119.435.435,0,0,0,.134-.344.449.449,0,0,0-.134-.342.53.53,0,0,0-.369-.133h-.584Z" transform="translate(-188.88 -103.909)" fill="#002e85"/>
    <path id="패스_20" data-name="패스 20" d="M259.946,139.618h1.132v.258h-1.449v-2.389h.317Z" transform="translate(-196.22 -103.908)" fill="#002e85"/>
    <path id="패스_21" data-name="패스 21" d="M268.8,139.251h-1l-.225.625h-.325l.912-2.389h.276l.914,2.389h-.323Zm-.906-.258h.812l-.407-1.117Z" transform="translate(-201.976 -103.909)" fill="#002e85"/>
    <path id="패스_22" data-name="패스 22" d="M278.374,137.745h-.768v2.131h-.313v-2.131h-.766v-.258h1.847Z" transform="translate(-208.991 -103.908)" fill="#002e85"/>
    <path id="패스_23" data-name="패스 23" d="M287.891,138.821h-1v1.055h-.315v-2.389h1.48v.258h-1.165v.818h1Z" transform="translate(-216.584 -103.909)" fill="#002e85"/>
    <path id="패스_24" data-name="패스 24" d="M296.789,138.657a1.48,1.48,0,0,1-.118.613.894.894,0,0,1-.335.4.921.921,0,0,1-.506.138.892.892,0,0,1-.839-.534,1.419,1.419,0,0,1-.124-.595v-.172a1.46,1.46,0,0,1,.12-.609.886.886,0,0,1,.84-.545.926.926,0,0,1,.506.138.892.892,0,0,1,.337.4,1.487,1.487,0,0,1,.118.613Zm-.313-.154a1.071,1.071,0,0,0-.171-.652.563.563,0,0,0-.477-.227.557.557,0,0,0-.47.227,1.049,1.049,0,0,0-.176.631v.176a1.075,1.075,0,0,0,.173.647.607.607,0,0,0,.949.013,1.067,1.067,0,0,0,.172-.637Z" transform="translate(-222.853 -103.807)" fill="#002e85"/>
    <path id="패스_25" data-name="패스 25" d="M306.573,138.909h-.561v.966h-.317v-2.389h.791a.934.934,0,0,1,.621.184.661.661,0,0,1,.218.535.645.645,0,0,1-.121.389.72.72,0,0,1-.336.247l.561,1.014v.02h-.338Zm-.561-.258h.484a.547.547,0,0,0,.373-.121.412.412,0,0,0,.138-.326.433.433,0,0,0-.132-.34.558.558,0,0,0-.381-.12h-.483Z" transform="translate(-231.036 -103.908)" fill="#002e85"/>
    <path id="패스_26" data-name="패스 26" d="M315.612,137.487l.781,1.949.781-1.949h.408v2.389h-.315v-.93l.03-1-.784,1.935h-.241l-.783-1.929.031,1v.93h-.315v-2.389Z" transform="translate(-238.223 -103.909)" fill="#002e85"/>
  </g>
</svg>
