<svg id="그룹_334" data-name="그룹 334" xmlns="http://www.w3.org/2000/svg" xmlns:xlink="http://www.w3.org/1999/xlink" width="200" height="200" viewBox="0 0 200 200">
  <defs>
    <clipPath id="clip-path">
      <rect id="사각형_1198" data-name="사각형 1198" width="200" height="200" fill="none"/>
    </clipPath>
  </defs>
  <g id="그룹_333" data-name="그룹 333" clip-path="url(#clip-path)">
    <path id="패스_256" data-name="패스 256" d="M98,75.893a8.773,8.773,0,1,1-8.773-8.773A8.773,8.773,0,0,1,98,75.893" fill="#ffe7b8"/>
    <path id="패스_257" data-name="패스 257" d="M70.717,86.275a9.632,9.632,0,0,0-6,12.228l4.057,11.886a9.632,9.632,0,0,0,12.228,6l16.161-5.517L86.878,80.758Z" fill="#fff"/>
    <path id="패스_258" data-name="패스 258" d="M147.108,97.546,134.551,60.762a6.885,6.885,0,0,0-10.183-3.6l-37.49,23.6,10.281,30.119,44.094-4.252a6.886,6.886,0,0,0,5.855-9.078" fill="#1152cc"/>
    <path id="패스_259" data-name="패스 259" d="M56.111,62.719h0A18.723,18.723,0,0,1,34.049,48.074l-.037-.175A18.725,18.725,0,0,1,70.72,40.48l.037.176A18.727,18.727,0,0,1,56.111,62.719" fill="#e6e6e6"/>
    <path id="패스_260" data-name="패스 260" d="M57.259,44.313,49.987,50.7a1.154,1.154,0,0,1-1.892-.639l-1.909-9.444a1.154,1.154,0,0,1,1.5-1.324l9.181,3.06a1.154,1.154,0,0,1,.4,1.962" fill="#fff"/>
    <path id="패스_261" data-name="패스 261" d="M141.823,185.83h0a18.726,18.726,0,0,1-23.116-12.92l-.048-.172a18.725,18.725,0,1,1,36.036-10.2l.048.172a18.725,18.725,0,0,1-12.92,23.116" fill="#e6e6e6"/>
    <path id="패스_262" data-name="패스 262" d="M129.516,124.837a2.26,2.26,0,1,1-2.26-2.26,2.26,2.26,0,0,1,2.26,2.26" fill="#c2ffbb"/>
    <path id="패스_263" data-name="패스 263" d="M33.494,84.608a2.26,2.26,0,1,1-2.26-2.26,2.26,2.26,0,0,1,2.26,2.26" fill="#bbecff"/>
    <path id="패스_264" data-name="패스 264" d="M103.31,161.79a2.26,2.26,0,1,1-2.261-2.26,2.26,2.26,0,0,1,2.261,2.26" fill="#bbecff"/>
    <path id="패스_265" data-name="패스 265" d="M190.748,73.827a2.26,2.26,0,1,1-2.26-2.26,2.26,2.26,0,0,1,2.26,2.26" fill="#bbecff"/>
    <path id="패스_266" data-name="패스 266" d="M122.4,45.5a1.22,1.22,0,1,1-1.219-1.219A1.219,1.219,0,0,1,122.4,45.5" fill="#c2ffbb"/>
    <path id="패스_267" data-name="패스 267" d="M69.658,112.992l-4.039,1.379a9.03,9.03,0,0,1-5.835-17.092L63.823,95.9Z" fill="#fff"/>
    <path id="패스_268" data-name="패스 268" d="M69.658,112.992l-4.039,1.379a9.03,9.03,0,0,1-5.835-17.092L63.823,95.9Z" fill="none" stroke="#1a1a1a" stroke-width="2"/>
    <path id="패스_269" data-name="패스 269" d="M96.827,140.03h0a5.166,5.166,0,0,1-6.558-3.219l-7.21-21.122,9.778-3.337,7.21,21.121a5.165,5.165,0,0,1-3.22,6.557" fill="#1152cc"/>
    <path id="패스_270" data-name="패스 270" d="M96.827,140.03h0a5.166,5.166,0,0,1-6.558-3.219l-7.21-21.122,9.778-3.337,7.21,21.121A5.165,5.165,0,0,1,96.827,140.03Z" fill="none" stroke="#1a1a1a" stroke-width="2"/>
    <line id="선_5" data-name="선 5" y1="11.947" x2="18.926" transform="translate(144.384 46.716)" fill="none" stroke="#c2ffbb" stroke-linecap="round" stroke-width="3"/>
    <line id="선_6" data-name="선 6" y1="3.697" x2="13.205" transform="translate(150.105 70.13)" fill="none" stroke="#ffe7b8" stroke-linecap="round" stroke-width="3"/>
    <line id="선_7" data-name="선 7" x2="23.305" transform="translate(156.932 91.119)" fill="none" stroke="#e6e6e6" stroke-linecap="round" stroke-width="3"/>
    <path id="패스_271" data-name="패스 271" d="M52.384,132.692a9.608,9.608,0,1,1-9.608-9.608,9.608,9.608,0,0,1,9.608,9.608" fill="#e6e6e6"/>
    <line id="선_8" data-name="선 8" x2="10.98" transform="translate(56.502 139.482)" fill="none" stroke="#e6e6e6" stroke-linecap="round" stroke-width="3.91"/>
    <line id="선_9" data-name="선 9" x2="30.629" transform="translate(36.853 148.512)" fill="none" stroke="#e6e6e6" stroke-linecap="round" stroke-width="3.91"/>
    <line id="선_10" data-name="선 10" x2="30.629" transform="translate(36.853 158.048)" fill="none" stroke="#e6e6e6" stroke-linecap="round" stroke-width="3.91"/>
    <line id="선_11" data-name="선 11" x2="30.629" transform="translate(36.853 167.583)" fill="none" stroke="#e6e6e6" stroke-linecap="round" stroke-width="3.91"/>
    <path id="패스_272" data-name="패스 272" d="M45.25,131.062a2.473,2.473,0,1,1-2.473-2.473,2.473,2.473,0,0,1,2.473,2.473" fill="#fff"/>
    <path id="패스_273" data-name="패스 273" d="M45.219,141.024H40.334a2.056,2.056,0,0,1-2.056-2.056v-.785a3.891,3.891,0,0,1,3.891-3.892h1.215a3.891,3.891,0,0,1,3.891,3.892v.785a2.056,2.056,0,0,1-2.056,2.056" fill="#fff"/>
    <path id="패스_274" data-name="패스 274" d="M133.954,155.5l.462-.131a1.057,1.057,0,0,0,.138,0,2.614,2.614,0,0,1,2.867,1.774,6.636,6.636,0,0,1,.353,2.22c0,.746,0,1.492.022,2.238a6.375,6.375,0,0,0,.117.778c.075-.026.112-.036.148-.051.784-.351,1.559-.727,2.356-1.045a6.294,6.294,0,0,1,2.384-.459,2.344,2.344,0,0,1,2.5,2.548.31.31,0,0,0,.107.209,2.753,2.753,0,0,1,.717.925,2.356,2.356,0,0,1,.05,1.868.316.316,0,0,0,.021.315,2.663,2.663,0,0,1,.078,2.9.386.386,0,0,0-.027.336,3.236,3.236,0,0,1,.16.679,2.764,2.764,0,0,1-1.1,2.411,6.8,6.8,0,0,1-2.525,1.3c-.612.185-1.245.3-1.86.48a48.235,48.235,0,0,1-6.356,1.367.481.481,0,0,0-.262.12,1.911,1.911,0,0,1-.866.516c-.8.231-1.6.46-2.409.681a1.806,1.806,0,0,1-1.648-.3,2.222,2.222,0,0,1-.584-.769q-.987-3.489-1.975-6.978c-.006-.1-.017-.2-.017-.3a1.769,1.769,0,0,1,1.342-1.791c.665-.2,1.335-.378,2-.568a2.513,2.513,0,0,1,1.336-.158,1.9,1.9,0,0,1,.053-.252,7.9,7.9,0,0,1,.469-1.247,7.845,7.845,0,0,0,.716-1.645,27.078,27.078,0,0,0,.91-5.148,1.39,1.39,0,0,0-.058-.445c-.062-.265-.161-.523-.209-.791a1.39,1.39,0,0,1,.592-1.586m.86,19.442c.026,0,.058-.007.09-.013,1.095-.209,2.2-.374,3.281-.636,1.607-.39,3.2-.827,4.792-1.287a4.142,4.142,0,0,0,1.728-1.015,1.465,1.465,0,0,0,.379-1.848.838.838,0,0,1,.082-.975,1.557,1.557,0,0,0-.062-2.013.778.778,0,0,1-.116-.95,1.348,1.348,0,0,0-.529-1.887c-.388-.26-.437-.377-.35-.834a1.148,1.148,0,0,0-1.125-1.49,5.473,5.473,0,0,0-1.365.134,12.5,12.5,0,0,0-3.3,1.358.915.915,0,0,1-1.34-.435,4.083,4.083,0,0,1-.325-1.227c-.058-.816-.037-1.637-.045-2.456a5.3,5.3,0,0,0-.273-1.81,1.459,1.459,0,0,0-1.613-1.057c-.236.021-.283.068-.233.3.056.26.141.513.207.77a1.785,1.785,0,0,1,.11.541,30.425,30.425,0,0,1-.76,4.9,8.465,8.465,0,0,1-.938,2.48,3.185,3.185,0,0,0-.458,1.207,2.529,2.529,0,0,0,0,.767,5.983,5.983,0,0,0,.236.655c.645,2.266,1.285,4.534,1.933,6.825m-5.895-2.363.91,3.217c.152.535.427.691.955.541l2.273-.643a.651.651,0,0,0,.509-.912q-.915-3.248-1.836-6.492a.646.646,0,0,0-.909-.51q-1.156.324-2.311.654a.643.643,0,0,0-.506.909q.456,1.619.915,3.236" fill="#fff"/>
    <path id="패스_275" data-name="패스 275" d="M167.133,125.16h0a8.561,8.561,0,0,1-4.164-11.37l.034-.074a8.562,8.562,0,0,1,15.534,7.206L178.5,121a8.562,8.562,0,0,1-11.37,4.164" fill="#e6e6e6"/>
    <path id="패스_276" data-name="패스 276" d="M170.415,113.488l.284.132c.088.065.183.126.266.2a1.99,1.99,0,0,1,.646,1.136c.028.134.045.272.067.409.12-.071.237-.147.357-.212a1.972,1.972,0,0,1,1.416-.215c.065.015.128.033.192.05l.284.131a3.783,3.783,0,0,1,.389.3,2,2,0,0,1,.577,1.9c-.026.145-.077.286-.116.429l-.131.284a.286.286,0,0,0-.033.047,2.565,2.565,0,0,1-.918.924,5.483,5.483,0,0,1-1.31.581c-.945.285-1.895.555-2.843.83a.243.243,0,0,1-.336-.155c-.347-.769-.7-1.536-1.039-2.308a6.958,6.958,0,0,1-.565-1.775,2.438,2.438,0,0,1,.647-2.154,1.951,1.951,0,0,1,1.836-.615c.11.019.22.056.33.085" fill="#fff"/>
    <path id="패스_277" data-name="패스 277" d="M90.1,28.764H95.29L78.376,43.747l-3.071-3.071L70.3,45.684" fill="none" stroke="#e6e6e6" stroke-linecap="round" stroke-linejoin="round" stroke-width="2"/>
    <line id="선_12" data-name="선 12" y1="4.757" transform="translate(95.29 28.765)" fill="none" stroke="#e6e6e6" stroke-linecap="round" stroke-linejoin="round" stroke-width="2"/>
    <path id="패스_278" data-name="패스 278" d="M147.108,97.546,134.551,60.762a6.885,6.885,0,0,0-10.183-3.6l-37.49,23.6L70.716,86.274a9.634,9.634,0,0,0-6,12.229l4.057,11.885a9.634,9.634,0,0,0,12.229,6l16.161-5.517,44.094-4.252A6.886,6.886,0,0,0,147.108,97.546Z" fill="none" stroke="#1a1a1a" stroke-width="2"/>
  </g>
</svg>
