<svg id="그룹_332" data-name="그룹 332" xmlns="http://www.w3.org/2000/svg" xmlns:xlink="http://www.w3.org/1999/xlink" width="200" height="200" viewBox="0 0 200 200">
  <defs>
    <clipPath id="clip-path">
      <rect id="사각형_1197" data-name="사각형 1197" width="200" height="200" fill="none"/>
    </clipPath>
  </defs>
  <g id="그룹_331" data-name="그룹 331" clip-path="url(#clip-path)">
    <path id="패스_238" data-name="패스 238" d="M91.627,48.75H95.91a8.413,8.413,0,0,1,8.413,8.412v4.266" fill="none" stroke="#a3c0ef" stroke-linejoin="round" stroke-width="6"/>
    <rect id="사각형_1196" data-name="사각형 1196" width="109.138" height="47.09" transform="translate(55.746 85.011)" fill="#3074e2"/>
    <path id="패스_239" data-name="패스 239" d="M104.116,65.267,97.935,59.5a.3.3,0,0,1,.207-.525H110.5a.3.3,0,0,1,.206.525l-6.181,5.767a.3.3,0,0,1-.413,0" fill="#a3c0ef"/>
    <path id="패스_240" data-name="패스 240" d="M176.132,40.871a5.675,5.675,0,1,1-5.675-5.675,5.675,5.675,0,0,1,5.675,5.675" fill="#e6e6e6"/>
    <path id="패스_241" data-name="패스 241" d="M158.152,177.93a5.675,5.675,0,1,1-5.675-5.675,5.675,5.675,0,0,1,5.675,5.675" fill="#e6e6e6"/>
    <path id="패스_242" data-name="패스 242" d="M147.292,18.931a8.773,8.773,0,1,1-8.773-8.773,8.773,8.773,0,0,1,8.773,8.773" fill="#ffe7b8"/>
    <path id="패스_243" data-name="패스 243" d="M102.232,175.67a2.26,2.26,0,1,1-2.26-2.26,2.26,2.26,0,0,1,2.26,2.26" fill="#c2ffbb"/>
    <path id="패스_244" data-name="패스 244" d="M135.456,158.538a2.259,2.259,0,1,1-2.26-2.26,2.26,2.26,0,0,1,2.26,2.26" fill="#e6e6e6"/>
    <path id="패스_245" data-name="패스 245" d="M20.454,97.938a2.26,2.26,0,1,1-2.26-2.26,2.26,2.26,0,0,1,2.26,2.26" fill="#bbecff"/>
    <path id="패스_246" data-name="패스 246" d="M143.876,55.089a2.26,2.26,0,1,1-2.26-2.26,2.26,2.26,0,0,1,2.26,2.26" fill="#bbecff"/>
    <path id="패스_247" data-name="패스 247" d="M43.5,115.957a3.729,3.729,0,1,1-3.729-3.729,3.729,3.729,0,0,1,3.729,3.729" fill="#ffe7b8"/>
    <line id="선_1" data-name="선 1" y1="5.974" x2="6.033" transform="translate(167.44 57.629)" fill="none" stroke="#c2ffbb" stroke-linecap="round" stroke-width="3"/>
    <line id="선_2" data-name="선 2" y1="5.974" x2="6.033" transform="translate(46.52 145.695)" fill="none" stroke="#ffe7b8" stroke-linecap="round" stroke-width="3"/>
    <line id="선_3" data-name="선 3" y1="2.322" x2="11.684" transform="translate(171.48 68.628)" fill="none" stroke="#bbecff" stroke-linecap="round" stroke-width="3"/>
    <path id="패스_248" data-name="패스 248" d="M27.946,50.9a3.686,3.686,0,0,1,4.086.07l18.5,12.756,11.68-6.04a3.7,3.7,0,0,1,3.655.15l15.663,9.794V41.04a4.007,4.007,0,0,0-4.008-4.008H17.975a4.007,4.007,0,0,0-4.008,4.008v18.8Z" fill="#e6e6e6"/>
    <path id="패스_249" data-name="패스 249" d="M63.883,61.473,52.192,67.519a3.683,3.683,0,0,1-3.794-.24L29.926,54.539,13.966,64.752V74.957a4.009,4.009,0,0,0,4.009,4.009H77.518a4.008,4.008,0,0,0,4.008-4.009V72.5Z" fill="#e6e6e6"/>
    <path id="패스_250" data-name="패스 250" d="M69.839,45.822a4.951,4.951,0,1,1-4.951-4.951,4.951,4.951,0,0,1,4.951,4.951" fill="#fff"/>
    <path id="패스_251" data-name="패스 251" d="M78.329,92.052a5.953,5.953,0,0,1,6.6.114l29.879,20.606,18.868-9.757a5.986,5.986,0,0,1,5.9.241l25.3,15.822V76.13a6.475,6.475,0,0,0-6.475-6.475H62.221a6.475,6.475,0,0,0-6.475,6.475V106.5Z" fill="#1152cc"/>
    <path id="패스_252" data-name="패스 252" d="M136.383,109.139,117.5,118.906a5.95,5.95,0,0,1-6.128-.388l-29.84-20.58-25.782,16.5v16.486a6.475,6.475,0,0,0,6.475,6.475h96.188a6.475,6.475,0,0,0,6.475-6.475V126.96Z" fill="#1152cc"/>
    <path id="패스_253" data-name="패스 253" d="M146,83.856a8,8,0,1,1-8-8,8,8,0,0,1,8,8" fill="#ffd371"/>
    <path id="패스_254" data-name="패스 254" d="M158.409,69.655H62.221a6.475,6.475,0,0,0-6.475,6.475v54.791a6.475,6.475,0,0,0,6.475,6.476h96.188a6.475,6.475,0,0,0,6.475-6.476V76.13A6.475,6.475,0,0,0,158.409,69.655Z" fill="none" stroke="#1a1a1a" stroke-width="2.2"/>
    <path id="패스_255" data-name="패스 255" d="M120.243,105.609l-17.465,10.026a2.4,2.4,0,0,1-3.6-2.082V93.5a2.4,2.4,0,0,1,3.6-2.083l17.465,10.027a2.4,2.4,0,0,1,0,4.165" fill="#fff"/>
    <line id="선_4" data-name="선 4" x1="16.956" y2="8.314" transform="translate(29.564 139.657)" fill="none" stroke="#c2ffbb" stroke-linecap="round" stroke-width="3"/>
  </g>
</svg>
