<svg id="그룹_336" data-name="그룹 336" xmlns="http://www.w3.org/2000/svg" xmlns:xlink="http://www.w3.org/1999/xlink" width="200" height="200" viewBox="0 0 200 200">
  <defs>
    <clipPath id="clip-path">
      <rect id="사각형_1203" data-name="사각형 1203" width="200" height="200" fill="none"/>
    </clipPath>
  </defs>
  <g id="그룹_335" data-name="그룹 335" clip-path="url(#clip-path)">
    <path id="패스_279" data-name="패스 279" d="M114.9,64.264l6.181,5.767a.3.3,0,0,1-.207.525H108.511a.3.3,0,0,1-.206-.525l6.181-5.767a.3.3,0,0,1,.413,0" fill="#a3c0ef"/>
    <path id="패스_280" data-name="패스 280" d="M113.71,42.521A14.823,14.823,0,1,1,98.887,27.7,14.823,14.823,0,0,1,113.71,42.521" fill="#ffd371"/>
    <path id="패스_281" data-name="패스 281" d="M105.868,41.235H104.55a.175.175,0,0,1-.168-.221l.913-3.287a.174.174,0,0,0-.168-.22h-1.242a.174.174,0,0,0-.169.131l-.872,3.465a.175.175,0,0,1-.169.132h-1.886a.174.174,0,0,1-.168-.13l-.91-3.469a.173.173,0,0,0-.168-.129H98.231a.173.173,0,0,0-.168.129l-.91,3.469a.174.174,0,0,1-.168.13H95.1a.175.175,0,0,1-.169-.132l-.872-3.465a.174.174,0,0,0-.169-.131H92.647a.174.174,0,0,0-.168.22l.913,3.287a.175.175,0,0,1-.168.221H91.906a.173.173,0,0,0-.174.173v.911a.174.174,0,0,0,.174.174H93.67a.174.174,0,0,1,.168.128l1.329,4.787a.173.173,0,0,0,.167.128h1.274a.173.173,0,0,0,.167-.127l1.346-4.789a.173.173,0,0,1,.167-.127h1.2a.173.173,0,0,1,.167.127L101,47.409a.173.173,0,0,0,.167.127h1.274a.173.173,0,0,0,.167-.128l1.329-4.787a.174.174,0,0,1,.168-.128h1.764a.174.174,0,0,0,.174-.174v-.911a.173.173,0,0,0-.174-.173m-9.807,4.029h-.083l-.643-2.555a.173.173,0,0,1,.168-.216h1.06a.174.174,0,0,1,.168.218Zm2.679-4.029a.174.174,0,0,1-.168-.221l.273-.972h.084l.273.972a.174.174,0,0,1-.168.221Zm3.056,4.029h-.083l-.67-2.553a.174.174,0,0,1,.168-.218h1.06a.173.173,0,0,1,.168.216Z" fill="#fff"/>
    <rect id="사각형_1199" data-name="사각형 1199" width="8.788" height="12.536" transform="translate(110.298 69.334)" fill="#a3c0ef"/>
    <path id="패스_282" data-name="패스 282" d="M99.206,66.84l6.181,5.767a.3.3,0,0,1-.207.525H92.818a.3.3,0,0,1-.206-.525l6.181-5.767a.3.3,0,0,1,.413,0" fill="#a3c0ef"/>
    <rect id="사각형_1200" data-name="사각형 1200" width="8.788" height="10.519" transform="translate(94.605 71.351)" fill="#a3c0ef"/>
    <path id="패스_283" data-name="패스 283" d="M83.512,69.415l6.181,5.767a.3.3,0,0,1-.207.525H77.124a.3.3,0,0,1-.206-.525L83.1,69.415a.3.3,0,0,1,.413,0" fill="#a3c0ef"/>
    <rect id="사각형_1201" data-name="사각형 1201" width="8.788" height="7.672" transform="translate(78.912 74.198)" fill="#a3c0ef"/>
    <path id="패스_284" data-name="패스 284" d="M194.4,136.75v29.329a4.21,4.21,0,0,1-4.21,4.21H96.939a4.209,4.209,0,0,1-4.209-4.21V136.75a4.209,4.209,0,0,1,4.209-4.21h93.246a4.21,4.21,0,0,1,4.21,4.21" fill="#e6e6e6"/>
    <path id="패스_285" data-name="패스 285" d="M148.274,152.4l-8.288,4.758a1.14,1.14,0,0,1-1.707-.989v-9.515a1.14,1.14,0,0,1,1.707-.988l8.288,4.757a1.14,1.14,0,0,1,0,1.977" fill="#fff"/>
    <path id="패스_286" data-name="패스 286" d="M58.882,79.425H25.459a3.573,3.573,0,0,1-3.573-3.574V14.828a3.573,3.573,0,0,1,3.573-3.574H58.882a3.574,3.574,0,0,1,3.574,3.574V75.851a3.574,3.574,0,0,1-3.574,3.574" fill="#e6e6e6"/>
    <rect id="사각형_1202" data-name="사각형 1202" width="85.126" height="51.872" rx="1.601" transform="translate(57.437 81.624)" fill="#1152cc"/>
    <path id="패스_287" data-name="패스 287" d="M140.962,82.624a.6.6,0,0,1,.6.6V131.9a.6.6,0,0,1-.6.6H59.038a.6.6,0,0,1-.6-.6V83.225a.6.6,0,0,1,.6-.6Zm0-2H59.038a2.6,2.6,0,0,0-2.6,2.6V131.9a2.6,2.6,0,0,0,2.6,2.6h81.924a2.6,2.6,0,0,0,2.6-2.6V83.225a2.6,2.6,0,0,0-2.6-2.6" fill="#1a1a1a"/>
    <path id="패스_288" data-name="패스 288" d="M109.026,109.453l-15.878,9.115a2.183,2.183,0,0,1-3.27-1.893V98.444a2.183,2.183,0,0,1,3.27-1.893l15.878,9.115a2.183,2.183,0,0,1,0,3.787" fill="#fff"/>
    <path id="패스_289" data-name="패스 289" d="M48,46.563,37.743,52.452a1.411,1.411,0,0,1-2.113-1.223V39.45a1.411,1.411,0,0,1,2.113-1.223L48,44.116a1.411,1.411,0,0,1,0,2.447" fill="#fff"/>
    <path id="패스_290" data-name="패스 290" d="M168.484,74.588H154.048a1.852,1.852,0,0,1-1.852-1.853V35.466a1.852,1.852,0,0,1,1.852-1.852h14.436a1.853,1.853,0,0,1,1.853,1.852V72.735a1.853,1.853,0,0,1-1.853,1.853" fill="#e6e6e6"/>
    <path id="패스_291" data-name="패스 291" d="M163.874,54.648l-4.587,2.633a.631.631,0,0,1-.945-.547V51.468a.631.631,0,0,1,.945-.547l4.587,2.633a.631.631,0,0,1,0,1.094" fill="#fff"/>
    <path id="패스_292" data-name="패스 292" d="M32.924,179.028H10.846A1.74,1.74,0,0,1,9.1,177.287v-22.2a1.741,1.741,0,0,1,1.741-1.741H32.924a1.741,1.741,0,0,1,1.741,1.741v22.2a1.74,1.74,0,0,1-1.741,1.741" fill="#e6e6e6"/>
    <path id="패스_293" data-name="패스 293" d="M25.161,166.874,19.4,170.183a.793.793,0,0,1-1.187-.688v-6.617a.792.792,0,0,1,1.187-.687l5.763,3.309a.792.792,0,0,1,0,1.374" fill="#fff"/>
    <path id="패스_294" data-name="패스 294" d="M31.234,92.366a5.675,5.675,0,1,1-5.675-5.675,5.675,5.675,0,0,1,5.675,5.675" fill="#ffe7b8"/>
    <path id="패스_295" data-name="패스 295" d="M191.436,104.022a8.773,8.773,0,1,1-8.773-8.773,8.773,8.773,0,0,1,8.773,8.773" fill="#ffe7b8"/>
    <path id="패스_296" data-name="패스 296" d="M156.715,86.691a2.26,2.26,0,1,1-2.26-2.26,2.26,2.26,0,0,1,2.26,2.26" fill="#c2ffbb"/>
    <path id="패스_297" data-name="패스 297" d="M72.558,155.606a2.26,2.26,0,1,1-2.26-2.26,2.26,2.26,0,0,1,2.26,2.26" fill="#bbecff"/>
    <path id="패스_298" data-name="패스 298" d="M129.516,66.445a2.26,2.26,0,1,1-2.26-2.259,2.261,2.261,0,0,1,2.26,2.259" fill="#bbecff"/>
    <path id="패스_299" data-name="패스 299" d="M142.02,25.438a2.26,2.26,0,1,1-2.26-2.26,2.26,2.26,0,0,1,2.26,2.26" fill="#ffe7b8"/>
    <path id="패스_300" data-name="패스 300" d="M66.823,185.4a3.729,3.729,0,1,1-3.729-3.729,3.729,3.729,0,0,1,3.729,3.729" fill="#ffe7b8"/>
    <path id="패스_301" data-name="패스 301" d="M30.156,121.053a1.22,1.22,0,1,1-1.219-1.219,1.219,1.219,0,0,1,1.219,1.219" fill="#c2ffbb"/>
  </g>
</svg>
