<svg id="그룹_615" data-name="그룹 615" xmlns="http://www.w3.org/2000/svg" width="50.038" height="50" viewBox="0 0 50.038 50">
  <path id="패스_3" data-name="패스 3" d="M39.619,0H10.241A10.243,10.243,0,0,0,0,10.244V39.619A10.242,10.242,0,0,0,10.241,49.86H39.619A10.243,10.243,0,0,0,49.861,39.619V10.244A10.244,10.244,0,0,0,39.619,0m4.113,32.147A11.585,11.585,0,0,1,32.147,43.731H17.714A11.585,11.585,0,0,1,6.128,32.147V17.716A11.586,11.586,0,0,1,17.714,6.129H32.147A11.586,11.586,0,0,1,43.732,17.716Z" fill="#9d9d9d"/>
  <path id="패스_4" data-name="패스 4" d="M76.593,53.623H63.847A10.284,10.284,0,0,0,53.614,63.955V76.826A10.282,10.282,0,0,0,63.847,87.158H76.593A10.282,10.282,0,0,0,86.824,76.826V63.955A10.285,10.285,0,0,0,76.593,53.623M70.771,81.394A10.931,10.931,0,1,1,81.6,70.463,10.88,10.88,0,0,1,70.771,81.394M80.845,62.141a2.781,2.781,0,1,1,2.754-2.78,2.765,2.765,0,0,1-2.754,2.78" transform="translate(-45.289 -45.46)" fill="#9d9d9d"/>
  <path id="패스_5" data-name="패스 5" d="M112.334,104.832a5,5,0,1,0,5.095,5,5.045,5.045,0,0,0-5.095-5" transform="translate(-86.877 -84.829)" fill="#9d9d9d"/>
  <rect id="사각형_68" data-name="사각형 68" width="50" height="50" transform="translate(0.038)" fill="none"/>
</svg>
