<?xml version="1.0" encoding="utf-8"?>
<!-- Generator: Adobe Illustrator 25.1.0, SVG Export Plug-In . SVG Version: 6.00 Build 0)  -->
<svg version="1.0" id="레이어_1" xmlns="http://www.w3.org/2000/svg" xmlns:xlink="http://www.w3.org/1999/xlink" x="0px"
	 y="0px" viewBox="0 0 32 32" enable-background="new 0 0 32 32" xml:space="preserve">
<path fill="#002E85" d="M1.3,14.7h26.1l-8.4-8.4c-0.5-0.5-0.5-1.4,0-1.9c0.5-0.5,1.4-0.5,1.9,0L31.6,15c0.6,0.6,0.6,1.5,0,2.1
	L21.1,27.6c-0.3,0.3-0.6,0.4-1,0.4c-0.3,0-0.7-0.1-0.9-0.4c-0.5-0.5-0.5-1.4,0-1.9l8.4-8.4H1.3C0.6,17.3,0,16.7,0,16
	S0.6,14.7,1.3,14.7z"/>
</svg>
