<svg xmlns="http://www.w3.org/2000/svg" width="40" height="40" viewBox="0 0 40 40">
  <g id="그룹_43" data-name="그룹 43" transform="translate(-1599.479 -4434.94)">
    <path id="패스_3" data-name="패스 3" d="M31.784,0H8.216A8.217,8.217,0,0,0,0,8.218V31.784A8.216,8.216,0,0,0,8.216,40H31.784A8.217,8.217,0,0,0,40,31.784V8.218A8.218,8.218,0,0,0,31.784,0m3.3,25.79a9.294,9.294,0,0,1-9.294,9.293H14.211a9.294,9.294,0,0,1-9.3-9.293V14.213a9.3,9.3,0,0,1,9.3-9.3H25.789a9.294,9.294,0,0,1,9.294,9.3Z" transform="translate(1599.479 4434.94)" fill="#707070"/>
    <path id="패스_4" data-name="패스 4" d="M72.048,53.623H61.823a8.25,8.25,0,0,0-8.209,8.289V72.237a8.248,8.248,0,0,0,8.209,8.289H72.048a8.249,8.249,0,0,0,8.208-8.289V61.912a8.251,8.251,0,0,0-8.208-8.289M67.378,75.9a8.77,8.77,0,1,1,8.684-8.769A8.728,8.728,0,0,1,67.378,75.9M75.46,60.456a2.231,2.231,0,1,1,2.209-2.23,2.218,2.218,0,0,1-2.209,2.23" transform="translate(1552.543 4387.866)" fill="#707070"/>
    <path id="패스_5" data-name="패스 5" d="M111.327,104.832a4.008,4.008,0,1,0,4.087,4.008,4.047,4.047,0,0,0-4.087-4.008" transform="translate(1508.575 4346.156)" fill="#707070"/>
    <rect id="사각형_68" data-name="사각형 68" width="39.888" height="39.888" transform="translate(1599.535 4434.996)" fill="none"/>
  </g>
</svg>
