<svg xmlns="http://www.w3.org/2000/svg" width="50.076" height="50" viewBox="0 0 50.076 50">
  <g id="그룹_617" data-name="그룹 617" transform="translate(-0.166)">
    <circle id="타원_148" data-name="타원 148" cx="25" cy="25" r="25" transform="translate(0.243)" fill="none"/>
    <path id="패스_837" data-name="패스 837" d="M22.447.787,1.747,15.448A4.1,4.1,0,0,0,0,18.791V47.237a2.656,2.656,0,0,0,2.687,2.624H13.931a2.659,2.659,0,0,0,2.69-2.624V35.114a2.656,2.656,0,0,1,2.687-2.624H30.553a2.656,2.656,0,0,1,2.687,2.624V47.237a2.656,2.656,0,0,0,2.687,2.624H47.174a2.656,2.656,0,0,0,2.687-2.624V18.791a4.1,4.1,0,0,0-1.747-3.343L27.414.787a4.315,4.315,0,0,0-4.966,0" transform="translate(0.166 -0.001)" fill="#9d9d9d"/>
  </g>
</svg>
