<svg id="그룹_616" data-name="그룹 616" xmlns="http://www.w3.org/2000/svg" width="50" height="50" viewBox="0 0 50 50">
  <path id="패스_6" data-name="패스 6" d="M129.805,128.226l7.275-4.118-7.275-4.118Z" transform="translate(-107.504 -99.178)" fill="#9d9d9d"/>
  <path id="패스_7" data-name="패스 7" d="M24.93,0a24.93,24.93,0,1,0,24.93,24.93A24.93,24.93,0,0,0,24.93,0m15.69,32.813a4.1,4.1,0,0,1-2.9,2.9c-2.554.684-12.795.684-12.795.684s-10.241,0-12.8-.684a4.1,4.1,0,0,1-2.9-2.9,42.631,42.631,0,0,1-.684-7.883,42.629,42.629,0,0,1,.684-7.883,4.1,4.1,0,0,1,2.9-2.9c2.554-.684,12.8-.684,12.8-.684s10.241,0,12.795.684a4.1,4.1,0,0,1,2.9,2.9,42.609,42.609,0,0,1,.684,7.883,42.611,42.611,0,0,1-.684,7.883" transform="translate(0)" fill="#9d9d9d"/>
  <rect id="사각형_69" data-name="사각형 69" width="50" height="50" transform="translate(0)" fill="none"/>
</svg>
