<svg xmlns="http://www.w3.org/2000/svg" width="179.215" height="275.554" viewBox="0 0 179.215 275.554">
  <g id="그룹_563" data-name="그룹 563" transform="translate(-430 -264.777)">
    <path id="패스_814" data-name="패스 814" d="M118.228,16.422H63.77a4.782,4.782,0,0,1-4.782-4.781V4H123.01v7.641A4.781,4.781,0,0,1,118.228,16.422Z" transform="translate(414.514 264.777)" fill="none" stroke="#1152cc" stroke-linecap="round" stroke-width="8"/>
    <line id="선_17" data-name="선 17" y2="12.184" transform="translate(491.658 386.548)" fill="none" stroke="#1152cc" stroke-linecap="round" stroke-width="8"/>
    <line id="선_18" data-name="선 18" y2="12.184" transform="translate(522.713 386.548)" fill="none" stroke="#1152cc" stroke-linecap="round" stroke-width="8"/>
    <path id="패스_815" data-name="패스 815" d="M84.262,210.2l.045-.039a23.484,23.484,0,0,1,30.966,0l.045.039" transform="translate(407.396 208.356)" fill="none" stroke="#1152cc" stroke-linecap="round" stroke-width="8"/>
    <circle id="타원_127" data-name="타원 127" cx="28.189" cy="28.189" r="28.189" transform="translate(548.837 303.893)" fill="none" stroke="#1152cc" stroke-linecap="round" stroke-width="8"/>
    <line id="선_19" data-name="선 19" x2="15.926" y2="15.926" transform="translate(569.063 324.119)" fill="none" stroke="#1152cc" stroke-linecap="round" stroke-width="8"/>
    <line id="선_20" data-name="선 20" y1="15.926" x2="15.926" transform="translate(569.063 324.12)" fill="none" stroke="#1152cc" stroke-linecap="round" stroke-width="8"/>
    <path id="패스_816" data-name="패스 816" d="M118.837,67.306a28.188,28.188,0,0,1,28.189-28.189V23.25A19.249,19.249,0,0,0,127.776,4H23.249A19.248,19.248,0,0,0,4,23.25V252.305a19.249,19.249,0,0,0,19.249,19.249H127.776a19.25,19.25,0,0,0,19.249-19.249V95.495A28.188,28.188,0,0,1,118.837,67.306Z" transform="translate(430 264.777)" fill="none" stroke="#1152cc" stroke-linecap="round" stroke-width="8"/>
  </g>
</svg>
