<svg width="314" height="150" viewBox="0 0 314 150" fill="none" xmlns="http://www.w3.org/2000/svg">
<g clip-path="url(#clip0_375_2286)">
<path d="M159.164 7.69473C159.164 11.9486 155.724 15.4084 151.471 15.4084C147.218 15.4084 143.777 11.9675 143.777 7.69473C143.777 3.42198 147.218 0 151.471 0C155.724 0 159.164 3.44089 159.164 7.69473Z" fill="#474747"/>
<path d="M158.144 82.1652C158.144 85.0578 155.138 87.4211 151.471 87.4211C147.785 87.4211 144.798 85.0578 144.798 82.1652V25.4473C144.798 22.5547 147.785 20.1914 151.471 20.1914C155.157 20.1914 158.144 22.5357 158.144 25.4473V82.1652Z" fill="#474747"/>
<path d="M133.569 29.6258C130.205 29.6258 127.483 32.5752 127.483 36.224V41.7257C127.483 41.7257 127.483 41.8013 127.483 41.8391V71.9563C127.483 72.1643 127.483 73.1474 127.483 73.431C127.483 79.9157 122.341 85.1716 116.008 85.1716C109.676 85.1716 104.534 79.9157 104.534 73.431C104.534 66.9462 109.676 61.6904 116.008 61.6904V61.6526C118.938 61.8227 121.566 59.4406 121.944 56.1887C122.322 53.0125 120.413 50.1766 117.653 49.5527C117.143 49.5338 116.632 49.5149 116.103 49.5149C107.994 49.5149 100.81 53.4096 96.3681 59.3838C93.4003 63.3541 91.6423 68.2318 91.6423 73.5255C91.6423 86.7975 102.587 97.5361 116.103 97.5361C126.386 97.5361 135.176 91.2971 138.787 82.4869C139.07 81.7685 139.335 81.069 139.562 80.3128C139.637 79.9157 139.675 79.5187 139.675 79.1028V36.2051C139.675 32.5752 136.953 29.6069 133.588 29.6069L133.569 29.6258Z" fill="#909090"/>
<path d="M198.105 68.7041C195.477 68.7041 193.209 70.141 192.15 72.2206C191.753 73.0147 191.508 73.9033 191.508 74.8486V78.4785C190.147 82.1274 187.179 84.6419 183.72 84.6419C180.26 84.6419 177.482 82.2597 176.064 78.7999V61.3686C176.177 61.3686 176.31 61.4064 176.423 61.4064H197.991C198.407 61.4064 198.823 61.3497 199.22 61.2741C202.396 60.688 204.797 57.9088 204.797 54.5814C204.797 50.8191 201.734 47.7563 197.973 47.7563H176.404C176.272 47.7563 176.158 47.7752 176.045 47.7941V41.6308C176.045 38.4924 173.191 35.959 169.675 35.959C166.159 35.959 163.304 38.4924 163.304 41.6308V78.8755C163.512 80.4826 163.909 82.0139 164.438 83.4886C167.406 91.7127 174.911 97.5546 183.72 97.5546C186.782 97.5546 189.674 96.8362 192.302 95.5695C199.428 92.1286 204.381 84.5284 204.381 75.6993C204.381 74.565 204.286 73.4495 204.135 72.3719C203.095 70.2166 200.789 68.723 198.086 68.723L198.105 68.7041Z" fill="#909090"/>
<path d="M3.49718 117.047C3.49718 117.16 3.5917 117.217 3.79963 117.217C3.95086 117.217 4.59357 117.122 5.72775 116.933C6.88085 116.744 7.92052 116.631 8.84677 116.631C7.8071 116.914 6.89975 117.198 6.14362 117.501C5.3875 117.784 4.61247 118.124 3.81854 118.484C3.02461 118.843 2.43861 119.07 2.09835 119.183C1.73919 119.297 1.43674 119.372 1.191 119.372C0.378167 119.372 -0.0187988 118.843 -0.0187988 117.803C-0.0187988 115.1 0.661714 113.209 2.02274 112.112C2.57093 111.678 3.47828 111.148 4.68808 110.543C5.91679 109.919 7.29672 109.352 8.84677 108.804C10.3968 108.256 12.0981 107.783 13.9506 107.386C15.8031 106.989 17.6367 106.8 19.4514 106.8C21.2661 106.8 23.0052 107.064 24.5742 107.594C26.1242 108.142 27.4286 108.898 28.4682 109.863C29.5268 110.827 30.3207 112.037 30.8878 113.436C31.4549 114.854 31.7196 116.442 31.7196 118.219C31.7196 120.904 30.9445 123.494 29.3945 126.027C27.8444 128.542 25.784 130.773 23.2132 132.701C20.6423 134.629 17.7312 136.161 14.4988 137.295C11.2664 138.411 8.07174 138.997 4.93382 138.997C4.34783 138.997 3.87525 138.94 3.53499 138.808C3.19473 138.675 2.94899 138.429 2.81667 138.051C2.66545 137.692 2.58983 137.144 2.58983 136.407C2.58983 135.499 2.66545 134.781 2.79777 134.195C2.94899 133.627 3.17583 132.966 3.51609 132.228C5.80337 127.162 9.77303 120.79 15.4251 113.095C14.2909 113.228 13.0433 113.455 11.6633 113.814C10.3023 114.173 9.0169 114.57 7.7882 114.986C6.55949 115.421 5.53872 115.837 4.68808 116.234C3.85634 116.631 3.42157 116.914 3.42157 117.104L3.49718 117.047ZM16.1623 112.888C16.1623 112.888 16.2001 113.095 16.2568 113.417C16.3135 113.738 16.3513 114.022 16.3513 114.268C16.3513 114.627 16.1623 115.156 15.7842 115.818C15.4062 116.48 14.6689 117.652 13.5915 119.334C12.4951 121.017 11.5499 122.492 10.7749 123.758C9.99986 125.025 9.07361 126.67 8.01503 128.674C7.67478 129.317 7.44794 129.752 7.31562 129.96C7.1833 130.186 6.99426 130.546 6.71072 131.075C6.42717 131.567 6.21924 132.02 6.10582 132.38C5.9735 132.739 5.91679 133.022 5.91679 133.211C5.91679 133.627 6.14362 133.911 6.5973 134.081C7.05097 134.251 7.69368 134.327 8.52542 134.327C10.6804 134.327 12.9677 133.93 15.3684 133.155C17.788 132.361 20.0374 131.283 22.1546 129.884C24.2717 128.485 25.973 126.916 27.2395 125.139C28.506 123.38 29.1487 121.528 29.1487 119.599C29.1487 117.406 28.3548 115.723 26.748 114.532C25.1413 113.341 22.8162 112.755 19.7539 112.755C18.4685 112.755 17.2587 112.793 16.1434 112.888H16.1623Z" fill="#454545"/>
<path d="M44.1767 130.508V132.247C42.6455 134.214 41.2089 135.707 39.8857 136.709C38.5624 137.711 37.4282 138.222 36.4831 138.222C35.1788 138.222 34.2147 137.541 33.5909 136.18C32.9482 134.819 32.6458 133.325 32.6458 131.699C32.6458 131.075 32.7025 130.489 32.8348 129.922C32.9671 129.355 33.1183 128.901 33.2885 128.523C33.4586 128.164 33.7799 127.596 34.2525 126.821C36.502 123.324 38.5624 121.565 40.4338 121.565C41.3979 121.565 41.8894 121.925 41.8894 122.681C41.8894 123.191 41.568 123.985 40.9442 125.063C40.3204 126.141 39.7533 126.916 39.2618 127.37C37.8819 128.712 36.9746 129.638 36.5587 130.168C36.1428 130.697 35.9349 131.283 35.9349 131.964C35.9349 132.531 36.1428 133.004 36.5776 133.382C37.0124 133.76 37.5606 133.949 38.2411 133.949C38.9783 133.949 39.81 133.665 40.6985 133.117C41.5869 132.569 42.7589 131.699 44.1767 130.489V130.508ZM42.5699 119.864C42.1729 119.864 41.7949 119.713 41.4357 119.41C41.0766 119.108 40.9064 118.73 40.9064 118.257C40.9064 117.557 41.2278 116.782 41.9083 115.913C42.5699 115.062 43.2504 114.627 43.9687 114.627C44.4413 114.627 44.8383 114.759 45.1596 115.062C45.481 115.364 45.6322 115.78 45.6322 116.347C45.6322 117.028 45.3109 117.784 44.6681 118.616C44.0254 119.448 43.326 119.864 42.5888 119.864H42.5699Z" fill="#454545"/>
<path d="M62.9098 132.058L55.0082 138.562C52.7966 142.4 50.755 145.274 48.9403 147.164C47.1067 149.055 45.7457 150 44.8762 150C44.4036 150 44.1578 149.717 44.1578 149.112C44.1578 147.977 44.7438 146.521 45.8969 144.725C46.3695 144.026 46.8799 143.345 47.4848 142.684C48.0897 142.022 48.6379 141.436 49.1861 140.963C49.7154 140.472 50.4148 139.867 51.2843 139.167C52.1539 138.43 52.7588 137.938 53.0612 137.673C54.6491 134.441 55.8022 131.964 56.5016 130.262C55.0082 131.85 53.7039 133.155 52.6075 134.157C51.4923 135.178 50.4715 135.972 49.5452 136.501C48.619 137.05 47.7872 137.333 47.0311 137.333C46.2183 137.333 45.4811 136.69 44.8006 135.405C44.12 134.119 43.7798 132.796 43.7798 131.434C43.7798 130.811 43.931 130.13 44.2146 129.449C44.517 128.75 44.9707 128.012 45.5945 127.218C46.2183 126.424 47.0122 125.611 47.9763 124.78C48.9403 123.948 50.0745 123.135 51.3788 122.341C53.8363 120.809 55.7644 120.034 57.1254 120.034C58.1462 120.034 58.6566 120.412 58.6566 121.15C58.6566 122.189 57.5602 123.173 55.3485 124.156C53.9875 124.742 52.6454 125.517 51.3221 126.481C49.9989 127.445 48.9214 128.485 48.1086 129.563C47.2769 130.659 46.8799 131.624 46.8799 132.493C46.8799 132.928 46.9744 133.249 47.2013 133.514C47.4092 133.779 47.6738 133.892 48.0141 133.892C48.5623 133.892 49.205 133.646 49.9233 133.136C50.6416 132.626 51.7002 131.737 53.099 130.451C53.7417 129.846 54.5735 128.92 55.6321 127.615C56.6906 126.311 57.5602 125.309 58.2596 124.628C58.9401 123.929 59.5639 123.589 60.131 123.589C60.4523 123.589 60.6981 123.683 60.906 123.891C61.0951 124.08 61.2085 124.383 61.2085 124.761C61.2085 125.479 60.9249 126.538 60.3389 127.918C59.7529 129.298 58.7133 131.567 57.201 134.705L62.9665 130.527V132.077L62.9098 132.058Z" fill="#454545"/>
<path d="M74.1004 130.508V132.247C72.5692 134.214 71.1326 135.707 69.7904 136.709C68.4672 137.711 67.333 138.222 66.3879 138.222C65.0836 138.222 64.1195 137.541 63.4957 136.18C62.8719 134.819 62.5505 133.325 62.5505 131.699C62.5505 131.075 62.6072 130.489 62.7396 129.922C62.8719 129.355 63.0231 128.901 63.1932 128.523C63.3634 128.164 63.6847 127.596 64.1573 126.821C66.4068 123.324 68.4672 121.565 70.3386 121.565C71.3027 121.565 71.7942 121.925 71.7942 122.681C71.7942 123.191 71.4917 123.985 70.849 125.063C70.2252 126.141 69.6581 126.916 69.1666 127.37C67.7867 128.712 66.8794 129.638 66.4635 130.168C66.0476 130.697 65.8397 131.283 65.8397 131.964C65.8397 132.531 66.0476 133.004 66.4824 133.382C66.9172 133.76 67.4654 133.949 68.1459 133.949C68.8831 133.949 69.7148 133.665 70.6033 133.117C71.5106 132.569 72.6637 131.699 74.0814 130.489L74.1004 130.508ZM72.4747 119.864C72.0777 119.864 71.6997 119.713 71.3405 119.41C70.9813 119.108 70.8112 118.73 70.8112 118.257C70.8112 117.557 71.1326 116.782 71.8131 115.913C72.4747 115.062 73.1741 114.627 73.8735 114.627C74.3461 114.627 74.7431 114.759 75.0644 115.062C75.3858 115.364 75.537 115.78 75.537 116.347C75.537 117.028 75.2156 117.784 74.554 118.616C73.9113 119.448 73.2119 119.864 72.4747 119.864Z" fill="#454545"/>
<path d="M82.2288 118.106H83.2495C84.0813 116.593 84.8563 115.535 85.5368 114.911C86.2173 114.287 86.9923 113.965 87.8619 113.965C88.7314 113.965 89.1662 114.173 89.1662 114.57C89.1662 114.759 88.826 115.27 88.1454 116.121C87.4649 116.971 86.9545 117.671 86.5954 118.238C87.1436 118.295 87.6161 118.37 88.032 118.408C88.4479 118.446 88.7881 118.503 89.015 118.522C88.1076 120.204 86.9734 121.925 85.6124 123.683C85.1587 123.645 84.7996 123.626 84.4971 123.607C84.1947 123.588 83.8922 123.551 83.5898 123.532C83.2873 123.513 82.9093 123.475 82.4745 123.437C81.605 124.817 80.9055 126.046 80.3195 127.143C79.7335 128.239 79.2988 129.222 78.9774 130.13C78.675 131.037 78.5237 131.907 78.5237 132.701C78.5237 133.798 78.9585 134.346 79.8281 134.346C80.433 134.346 81.2269 134.025 82.1909 133.382C83.1739 132.739 84.4593 131.756 86.1039 130.414V132.002C81.8318 136.634 78.6561 138.959 76.6145 138.959C75.8962 138.959 75.3291 138.675 74.8943 138.127C74.4596 137.56 74.2516 136.86 74.2516 135.991C74.2516 135.405 74.3651 134.705 74.6108 133.911C74.8565 133.098 75.2913 131.888 75.9151 130.262C75.6883 130.451 75.4803 130.64 75.2913 130.811C75.1023 131 74.9132 131.17 74.7431 131.302C74.573 131.453 74.4029 131.624 74.2138 131.794C74.0248 131.964 73.8358 132.134 73.6467 132.304V130.659C75.3102 129.279 77.3139 126.802 79.6579 123.305C79.4122 123.305 79.2043 123.286 78.9963 123.267C78.7884 123.267 78.5426 123.267 78.2591 123.267C77.3328 123.267 76.6334 123.324 76.1797 123.456C75.9907 123.513 75.8206 123.551 75.6505 123.607C75.4803 123.664 75.3669 123.683 75.3102 123.683C75.2535 123.683 75.2157 123.626 75.2157 123.532C75.2157 123.021 75.537 122.246 76.1797 121.206C76.709 120.299 77.2005 119.637 77.6542 119.221C78.1268 118.786 78.6939 118.503 79.3555 118.352C80.036 118.2 80.9811 118.125 82.1909 118.125L82.2288 118.106Z" fill="#454545"/>
<path d="M88.8827 126.216C91.2834 124.042 93.6273 122.416 95.8957 121.339C98.1641 120.28 99.9221 119.75 101.151 119.75C101.491 119.75 101.794 119.883 102.077 120.166C102.361 120.45 102.587 120.771 102.758 121.131C102.928 121.49 103.003 121.755 103.003 121.944C103.003 122.227 102.89 122.435 102.682 122.586C102.455 122.719 102.077 122.889 101.51 123.078C101.623 123.324 101.775 123.645 101.945 124.042C102.115 124.439 102.247 124.761 102.342 125.006C102.436 125.252 102.493 125.46 102.493 125.649C102.493 126.027 102.096 126.746 101.34 127.786C100.565 128.825 100.036 129.582 99.7142 130.092C99.4117 130.584 99.2416 131.189 99.2416 131.888C99.2416 133.06 99.7898 133.646 100.867 133.646C101.945 133.646 103.722 132.607 106.085 130.527V131.983C102.077 136.426 99.2038 138.656 97.4647 138.656C96.8409 138.656 96.4061 138.467 96.1415 138.051C95.8768 137.654 95.7445 137.049 95.7445 136.255C95.7445 134.989 96.1982 133.193 97.1055 130.81C94.7804 133.382 93.0603 135.197 91.945 136.293C90.8297 137.371 89.8845 137.919 89.1662 137.919C88.8259 137.919 88.3912 137.617 87.8619 137.012C87.3326 136.407 86.8789 135.632 86.4631 134.667C86.0661 133.722 85.8582 132.72 85.8582 131.68C85.8582 130.943 85.9338 130.319 86.0661 129.808C86.1984 129.317 86.482 128.806 86.8978 128.277C87.3137 127.767 87.9753 127.067 88.8827 126.197V126.216ZM100.262 123.607C96.1415 125.498 93.2115 127.105 91.4535 128.409C89.7144 129.733 88.826 131.094 88.826 132.474C88.826 132.985 88.9016 133.401 89.0906 133.722C89.2607 134.043 89.5065 134.214 89.79 134.214C89.9601 134.214 90.2626 134.1 90.7163 133.873C92.3797 132.89 93.9109 131.623 95.2719 130.035C96.6519 128.447 98.2964 126.311 100.243 123.588L100.262 123.607Z" fill="#454545"/>
<path d="M117.218 130.225V131.983C113.91 136.388 111.207 138.581 109.128 138.581C107.994 138.581 107.105 137.957 106.462 136.728C105.82 135.499 105.498 133.892 105.498 131.888C105.498 130.262 105.876 128.353 106.651 126.122C107.408 123.891 108.447 121.641 109.714 119.335C110.999 117.047 112.322 115.043 113.702 113.342C115.082 111.64 116.349 110.449 117.521 109.768C117.993 109.485 118.371 109.333 118.636 109.333C118.976 109.333 119.184 109.485 119.298 109.768C119.411 110.071 119.468 110.562 119.468 111.281C119.468 113.474 118.56 116.196 116.765 119.391C114.969 122.605 112.455 125.895 109.241 129.223C109.09 130.036 109.014 130.678 109.014 131.132C109.014 132.134 109.222 132.966 109.676 133.609C110.111 134.252 110.716 134.554 111.509 134.554C111.906 134.554 112.341 134.403 112.795 134.1C113.249 133.798 113.74 133.401 114.25 132.947C114.761 132.493 115.763 131.586 117.237 130.206L117.218 130.225ZM110.073 125.952C110.905 125.139 111.699 124.231 112.474 123.21C113.249 122.171 113.967 121.074 114.666 119.902C115.347 118.73 115.895 117.671 116.273 116.745C116.67 115.799 116.859 115.1 116.859 114.627C116.859 114.268 116.727 114.079 116.481 114.079C116.386 114.079 116.197 114.173 115.933 114.344C114.95 115.138 113.872 116.688 112.663 118.994C111.453 121.301 110.583 123.607 110.073 125.971V125.952Z" fill="#454545"/>
<path d="M138.976 138.656L137.501 137.579C137.293 137.39 137.18 137.182 137.18 136.993C137.18 136.804 137.558 136.085 138.295 134.856C138.825 133.987 139.543 132.777 140.469 131.264C141.376 129.733 142.114 128.485 142.662 127.502C143.21 126.519 143.891 125.233 144.685 123.626C145.497 122.038 146.216 120.469 146.877 118.937C148.408 115.44 149.183 113.209 149.183 112.226C149.183 111.072 148.73 110.524 147.86 110.524C147.199 110.524 146.253 110.865 145.025 111.545C143.796 112.226 142.53 113.114 141.225 114.211C139.921 115.307 138.825 116.461 137.955 117.652C137.085 118.843 136.651 119.902 136.651 120.809C136.651 120.941 136.688 121.074 136.764 121.13C136.84 121.206 136.991 121.244 137.18 121.244C137.558 121.244 138.182 121.017 139.032 120.582C139.411 120.393 139.618 120.431 139.618 120.677C139.618 120.923 139.014 121.584 137.823 122.643C136.613 123.702 135.724 124.231 135.157 124.231C134.666 124.231 133.985 123.796 133.097 122.945C132.208 122.095 131.774 121.32 131.774 120.62C131.774 120.355 132.019 119.713 132.511 118.692C133.002 117.671 133.683 116.517 134.534 115.232C135.384 113.946 136.292 112.831 137.237 111.885C138.333 110.789 139.581 109.825 140.98 108.955C142.378 108.104 143.72 107.443 145.006 106.97C146.291 106.497 147.331 106.251 148.125 106.251C149.259 106.251 150.166 106.686 150.79 107.537C151.433 108.407 151.754 109.617 151.754 111.167C151.754 113.228 150.941 116.215 149.335 120.11C147.709 124.023 145.233 128.579 141.868 133.816C141.906 133.968 141.962 134.138 142.038 134.327C142.095 134.516 142.133 134.686 142.133 134.837C142.133 134.856 142.114 134.932 142.057 135.007C142 135.102 141.962 135.197 141.887 135.291C141.83 135.386 141.792 135.442 141.773 135.48L140.053 138.335C139.864 138.675 139.656 138.845 139.448 138.845C139.259 138.845 139.108 138.789 138.976 138.656Z" fill="#454545"/>
<path d="M160.469 133.722C162.661 131.794 164.533 130.111 166.083 128.674C167.652 127.237 168.881 126.103 169.769 125.271C170.657 124.439 171.451 123.74 172.132 123.191C172.812 122.624 173.247 122.322 173.436 122.322C173.795 122.322 174.155 122.681 174.495 123.456C174.816 124.231 174.986 124.855 174.986 125.309C174.986 125.611 174.495 126.33 173.474 127.445C172.472 128.561 171.716 129.449 171.225 130.111C170.733 130.773 170.468 131.472 170.468 132.191C170.468 132.626 170.601 132.966 170.903 133.231C171.187 133.495 171.527 133.628 171.924 133.628C172.378 133.628 172.926 133.382 173.569 132.909C174.211 132.436 175.232 131.586 176.593 130.357V132.058C175.213 133.363 173.966 134.478 172.831 135.424C171.716 136.369 170.733 137.068 169.901 137.541C169.07 138.014 168.37 138.241 167.822 138.241C167.33 138.241 166.915 138.052 166.593 137.673C166.253 137.314 166.083 136.842 166.083 136.293C166.083 135.745 166.177 135.197 166.366 134.648C166.555 134.081 166.839 133.439 167.255 132.663C167.652 131.907 168.181 130.981 168.824 129.922C169.485 128.844 170.071 127.861 170.601 126.973C168.975 128.296 167.557 129.563 166.31 130.792C165.062 132.021 164.041 133.079 163.247 133.987C162.453 134.894 161.83 135.632 161.376 136.142C160.488 137.125 159.656 137.617 158.9 137.617C158.068 137.617 157.652 137.012 157.652 135.84C157.652 135.367 157.955 134.516 158.578 133.287C159.202 132.058 160.072 130.489 161.225 128.58C161.319 128.447 161.376 128.239 161.376 127.975C161.376 127.653 161.225 127.502 160.903 127.502C160.544 127.502 160.053 127.842 159.391 128.504C158.73 129.166 157.463 130.546 155.573 132.644C155.043 133.231 154.457 133.987 153.796 134.932C153.134 135.877 152.662 136.52 152.378 136.823C152.095 137.144 151.811 137.295 151.527 137.295C150.96 137.295 150.431 136.785 149.94 135.764C149.448 134.743 149.202 133.571 149.202 132.21C149.202 131.227 149.373 130.376 149.694 129.676C150.015 128.958 150.526 128.069 151.206 127.01C152.265 125.479 153.134 124.383 153.815 123.74C154.495 123.078 155.195 122.757 155.951 122.757C156.404 122.757 156.801 122.851 157.123 123.021C157.444 123.191 157.595 123.456 157.595 123.759C157.595 124.099 157.312 124.647 156.726 125.403C156.14 126.16 155.403 126.935 154.514 127.748C154.042 128.22 153.588 128.788 153.153 129.449C152.718 130.13 152.51 130.622 152.51 130.924C152.51 131.359 152.681 131.567 153.002 131.567C153.267 131.567 153.947 131 155.043 129.903C156.14 128.788 157.331 127.578 158.635 126.273C159.939 124.969 161.149 123.872 162.283 123.021C163.399 122.152 164.344 121.717 165.138 121.717C165.61 121.717 166.007 121.887 166.31 122.246C166.612 122.605 166.782 123.04 166.782 123.57C166.782 123.91 166.537 124.553 166.064 125.46C165.591 126.368 164.911 127.502 164.004 128.844C163.096 130.187 161.924 131.813 160.488 133.703L160.469 133.722Z" fill="#454545"/>
<path d="M179.277 126.216C181.697 124.042 184.022 122.416 186.29 121.339C188.54 120.28 190.298 119.75 191.545 119.75C191.886 119.75 192.188 119.883 192.472 120.166C192.755 120.45 192.982 120.771 193.152 121.131C193.322 121.49 193.398 121.755 193.398 121.944C193.398 122.227 193.285 122.435 193.058 122.586C192.85 122.719 192.453 122.889 191.905 123.078C192.018 123.324 192.15 123.645 192.32 124.042C192.491 124.439 192.623 124.761 192.717 125.006C192.812 125.252 192.869 125.46 192.869 125.649C192.869 126.027 192.472 126.746 191.716 127.786C190.941 128.825 190.411 129.582 190.09 130.092C189.787 130.584 189.636 131.189 189.636 131.888C189.636 133.06 190.165 133.646 191.262 133.646C192.358 133.646 194.097 132.607 196.46 130.527V131.983C192.453 136.426 189.58 138.656 187.84 138.656C187.217 138.656 186.782 138.467 186.517 138.051C186.253 137.654 186.139 137.049 186.139 136.255C186.139 134.989 186.574 133.193 187.5 130.81C185.175 133.382 183.455 135.197 182.34 136.293C181.205 137.371 180.279 137.919 179.542 137.919C179.202 137.919 178.748 137.617 178.238 137.012C177.708 136.407 177.255 135.632 176.839 134.667C176.442 133.722 176.234 132.72 176.234 131.68C176.234 130.943 176.309 130.319 176.461 129.808C176.593 129.317 176.877 128.806 177.292 128.277C177.708 127.767 178.37 127.067 179.277 126.197V126.216ZM190.657 123.607C186.536 125.498 183.606 127.105 181.848 128.409C180.109 129.733 179.221 131.094 179.221 132.474C179.221 132.985 179.296 133.401 179.485 133.722C179.655 134.043 179.901 134.214 180.204 134.214C180.374 134.214 180.676 134.1 181.13 133.873C182.793 132.89 184.324 131.623 185.685 130.035C187.065 128.447 188.71 126.311 190.657 123.588V123.607Z" fill="#454545"/>
<path d="M215.174 132.058L207.273 138.562C205.042 142.4 203.02 145.274 201.205 147.164C199.39 149.055 198.029 150 197.141 150C196.668 150 196.422 149.717 196.422 149.112C196.422 147.977 196.989 146.521 198.161 144.725C198.615 144.026 199.144 143.345 199.749 142.684C200.354 142.022 200.902 141.436 201.451 140.963C201.98 140.472 202.679 139.867 203.549 139.167C204.418 138.43 205.004 137.938 205.326 137.673C206.914 134.441 208.067 131.964 208.766 130.262C207.273 131.85 205.968 133.155 204.853 134.157C203.738 135.178 202.717 135.972 201.791 136.501C200.865 137.05 200.033 137.333 199.277 137.333C198.464 137.333 197.727 136.69 197.046 135.405C196.366 134.119 196.025 132.796 196.025 131.434C196.025 130.811 196.158 130.13 196.46 129.449C196.744 128.75 197.216 128.012 197.84 127.218C198.464 126.424 199.277 125.611 200.241 124.78C201.205 123.948 202.339 123.135 203.624 122.341C206.101 120.809 208.01 120.034 209.371 120.034C210.392 120.034 210.902 120.412 210.902 121.15C210.902 122.189 209.806 123.173 207.594 124.156C206.233 124.742 204.891 125.517 203.568 126.481C202.245 127.445 201.167 128.485 200.354 129.563C199.522 130.659 199.126 131.624 199.126 132.493C199.126 132.928 199.22 133.249 199.447 133.514C199.655 133.779 199.919 133.892 200.26 133.892C200.808 133.892 201.451 133.646 202.169 133.136C202.887 132.626 203.946 131.737 205.345 130.451C205.987 129.846 206.819 128.92 207.878 127.615C208.936 126.311 209.806 125.309 210.505 124.628C211.205 123.929 211.828 123.589 212.377 123.589C212.698 123.589 212.944 123.683 213.152 123.891C213.341 124.08 213.454 124.383 213.454 124.761C213.454 125.479 213.171 126.538 212.585 127.918C211.999 129.298 210.959 131.567 209.447 134.705L215.212 130.527V132.077L215.174 132.058Z" fill="#454545"/>
<path d="M218.823 131.359V131.964C218.823 132.89 219.05 133.628 219.503 134.157C219.957 134.686 220.562 134.951 221.299 134.951C222.074 134.951 222.868 134.762 223.7 134.403C224.531 134.043 225.363 133.552 226.176 132.947C226.989 132.342 227.991 131.529 229.182 130.527V131.983C227.386 134.138 225.704 135.802 224.153 136.936C222.584 138.089 220.997 138.675 219.371 138.675C217.953 138.675 216.838 138.127 216.025 137.031C215.193 135.934 214.796 134.44 214.796 132.531C214.796 130.867 215.174 129.355 215.949 127.994C216.725 126.632 217.991 125.195 219.749 123.683C220.959 122.643 222.15 121.868 223.341 121.339C224.532 120.809 225.59 120.563 226.516 120.563C227.254 120.563 227.84 120.734 228.293 121.074C228.728 121.414 228.936 121.925 228.936 122.624C228.936 123.626 228.577 124.628 227.821 125.611C227.083 126.594 225.949 127.596 224.418 128.561C222.887 129.544 221.016 130.489 218.785 131.397L218.823 131.359ZM219.05 129.809C220.467 129.26 221.696 128.561 222.698 127.748C223.719 126.916 224.456 126.122 224.947 125.366C225.42 124.609 225.666 124.061 225.666 123.721C225.666 123.362 225.496 123.173 225.174 123.173C224.891 123.173 224.437 123.362 223.794 123.721C223.152 124.08 222.509 124.553 221.847 125.158C221.186 125.744 220.6 126.443 220.07 127.237C219.541 128.031 219.201 128.901 219.05 129.827V129.809Z" fill="#454545"/>
<path d="M258.897 133.249L259.672 133.836C259.464 134.289 259.275 134.667 259.086 135.008C258.897 135.348 258.671 135.745 258.406 136.218C258.141 136.69 257.933 137.05 257.782 137.295C256.591 139.375 255.476 140.415 254.436 140.415C254.002 140.415 253.605 140.245 253.283 139.885C252.962 139.545 252.811 139.054 252.811 138.467C252.811 137.617 253.113 136.445 253.718 134.932C254.323 133.438 255.268 131.624 256.553 129.43C257.839 127.256 259.427 124.78 261.374 122.019C263.302 119.259 265.476 116.347 267.914 113.285C266.515 113.077 264.852 112.982 262.943 112.982C260.731 112.982 258.274 113.228 255.57 113.72C252.867 114.211 250.504 114.778 248.501 115.421C246.516 116.064 245.495 116.537 245.495 116.839C245.495 116.952 245.533 117.028 245.608 117.066C245.684 117.104 245.816 117.123 246.005 117.16C246.195 117.179 246.421 117.217 246.705 117.236C248.557 117.482 249.484 117.765 249.484 118.087C249.484 118.238 249.087 118.314 248.274 118.314C247.461 118.314 246.478 118.314 245.344 118.314C244.436 118.314 243.775 118.276 243.378 118.2C242.981 118.125 242.697 117.992 242.565 117.803C242.433 117.595 242.357 117.312 242.357 116.896C242.357 116.631 242.433 116.045 242.584 115.138C242.886 113.455 243.34 112.113 243.983 111.111C244.607 110.09 245.571 109.277 246.856 108.634C248.16 107.991 249.937 107.481 252.206 107.102C256.024 106.422 259.162 106.082 261.657 106.082C263.491 106.082 264.946 106.157 266.005 106.308C267.064 106.46 267.858 106.687 268.349 106.97C268.84 107.254 269.162 107.537 269.294 107.802C269.426 108.086 269.597 108.558 269.823 109.239L270.561 111.432C270.598 111.583 270.636 111.697 270.674 111.772C270.712 111.867 270.731 111.942 270.769 112.037C270.787 112.131 270.806 112.226 270.806 112.302C270.806 112.926 270.674 113.474 270.391 113.965C270.107 114.457 269.597 115.194 268.859 116.177C268.122 117.16 267.574 117.936 267.234 118.484C263.132 125.12 260.353 130.054 258.86 133.249H258.897Z" fill="#454545"/>
<path d="M270.371 131.359V131.964C270.371 132.89 270.598 133.628 271.052 134.157C271.506 134.686 272.111 134.951 272.848 134.951C273.585 134.951 274.417 134.762 275.248 134.403C276.08 134.043 276.912 133.552 277.725 132.947C278.557 132.342 279.558 131.529 280.749 130.527V131.983C278.954 134.138 277.271 135.802 275.721 136.936C274.152 138.089 272.564 138.675 270.939 138.675C269.521 138.675 268.406 138.127 267.593 137.031C266.761 135.934 266.364 134.44 266.364 132.531C266.364 130.867 266.761 129.355 267.536 127.994C268.311 126.632 269.578 125.195 271.336 123.683C272.545 122.643 273.736 121.868 274.927 121.339C276.118 120.809 277.177 120.563 278.103 120.563C278.859 120.563 279.445 120.734 279.861 121.074C280.315 121.414 280.522 121.925 280.522 122.624C280.522 123.626 280.144 124.628 279.407 125.611C278.67 126.594 277.536 127.596 276.005 128.561C274.473 129.544 272.602 130.489 270.371 131.397V131.359ZM270.598 129.809C272.016 129.26 273.226 128.561 274.247 127.748C275.267 126.916 276.005 126.122 276.496 125.366C276.988 124.609 277.214 124.061 277.214 123.721C277.214 123.362 277.044 123.173 276.723 123.173C276.439 123.173 275.967 123.362 275.343 123.721C274.7 124.08 274.058 124.553 273.396 125.158C272.734 125.744 272.148 126.443 271.619 127.237C271.09 128.031 270.75 128.901 270.598 129.827V129.809Z" fill="#454545"/>
<path d="M295.097 130.527V132.115C293.396 133.779 292.016 135.065 290.938 135.972C289.88 136.898 288.878 137.598 287.952 138.127C287.025 138.638 286.118 138.884 285.23 138.884C284.341 138.884 283.547 138.543 282.829 137.844C282.092 137.163 281.525 136.256 281.109 135.14C280.693 134.006 280.485 132.834 280.485 131.586C280.485 130.508 280.712 129.544 281.203 128.712C281.695 127.861 282.602 126.784 283.963 125.441C285.589 123.872 287.082 122.624 288.481 121.755C289.861 120.904 290.957 120.45 291.751 120.45C292.318 120.45 292.81 120.658 293.207 121.055C293.604 121.452 293.793 121.944 293.793 122.568C293.793 123.078 293.528 123.797 293.018 124.723C292.488 125.668 291.902 126.481 291.26 127.181C290.617 127.88 290.088 128.221 289.71 128.221C289.294 128.221 289.086 127.994 289.086 127.54C289.086 127.427 289.105 127.294 289.124 127.181C289.124 127.067 289.124 126.954 289.124 126.859C289.124 126.67 289.067 126.557 288.935 126.538C288.802 126.519 288.632 126.576 288.443 126.708C286.855 127.824 285.759 128.599 285.192 129.052C284.606 129.506 284.133 129.96 283.793 130.433C283.453 130.886 283.283 131.359 283.283 131.869C283.283 132.796 283.585 133.571 284.19 134.138C284.795 134.724 285.57 135.027 286.553 135.027C287.536 135.027 288.746 134.649 290.163 133.873C291.562 133.117 293.207 131.983 295.116 130.527H295.097Z" fill="#454545"/>
<path d="M312.771 130.47V131.983C311.391 133.4 310.2 134.554 309.18 135.442C308.178 136.35 307.289 137.03 306.533 137.484C305.777 137.938 305.153 138.165 304.605 138.165C303.376 138.165 302.753 137.427 302.753 135.972C302.753 134.8 303.15 133.419 303.925 131.869C304.7 130.319 305.815 128.485 307.27 126.386C306.533 126.783 305.872 127.237 305.229 127.767C304.605 128.277 304.019 128.825 303.528 129.392C303.036 129.96 302.62 130.451 302.28 130.848C301.259 132.001 300.257 133.193 299.312 134.421C298.348 135.65 297.724 136.425 297.384 136.804C297.044 137.163 296.741 137.333 296.439 137.333C295.21 137.333 294.586 135.82 294.586 132.758C294.586 131.756 294.738 130.64 295.021 129.449C295.324 128.239 296.137 126.632 297.441 124.647C300.22 120.507 302.601 117.104 304.567 114.476C306.533 111.829 308.178 109.844 309.482 108.482C310.786 107.14 311.656 106.478 312.091 106.516C312.639 106.554 313.093 106.667 313.433 106.838C313.773 107.008 313.943 107.197 313.943 107.443C313.943 107.84 313.66 108.501 313.13 109.409C312.582 110.316 311.637 111.753 310.314 113.682C308.858 115.723 307.838 117.16 307.233 117.992C306.628 118.824 305.72 119.996 304.529 121.528C303.339 123.059 302.242 124.42 301.24 125.63C300.257 126.821 299.123 128.126 297.838 129.506V132.38C299.974 130.016 301.807 128.069 303.357 126.575C304.908 125.063 306.231 123.929 307.308 123.153C308.386 122.378 309.18 122 309.69 122C310.163 122 310.616 122.284 311.013 122.832C311.429 123.399 311.637 123.853 311.637 124.212C311.637 124.363 311.561 124.571 311.391 124.798C310.238 126.159 309.331 127.294 308.65 128.201C307.97 129.109 307.459 129.903 307.081 130.621C306.722 131.321 306.533 131.926 306.533 132.436C306.533 133.193 306.892 133.552 307.611 133.552C308.367 133.552 310.068 132.531 312.696 130.451L312.771 130.47Z" fill="#454545"/>
</g>
<defs>
<clipPath id="clip0_375_2286">
<rect width="314" height="150" fill="white"/>
</clipPath>
</defs>
</svg>
