<svg width="413" height="91" viewBox="0 0 413 91" fill="none" xmlns="http://www.w3.org/2000/svg">
<g clip-path="url(#clip0_375_2307)">
<path d="M29.816 62.2288L26.8953 75.5956C26.5302 77.2664 24.8264 78.652 23.1227 78.652H17.7274C16.0237 78.652 14.8878 77.2664 15.2935 75.5956L28.3962 15.3636C28.7613 13.6928 30.4651 12.3072 32.1688 12.3072H37.5641C39.2679 12.3072 40.4037 13.652 40.0386 15.3636L37.0367 29.2602H51.3159L55.0885 11.9404C56.5083 5.33856 52.2083 0 45.4744 0H29.6943C22.9604 0 16.3076 5.33856 14.8878 11.9404L0.284152 79.0188C-1.13565 85.6207 3.16432 91 9.89824 91H25.6378C32.3717 91 39.0245 85.6207 40.4443 79.0188L44.0952 62.2288H29.816Z" fill="#3E3E3E"/>
<path d="M81.7806 23.229H69.6514C62.9175 23.229 56.2647 28.5676 54.8449 35.1694L45.312 79.019C43.8922 85.6208 48.1922 91.0002 54.9261 91.0002H67.0552C73.7891 91.0002 80.4419 85.6208 81.8617 79.019L91.3947 35.1694C92.8145 28.5676 88.5145 23.229 81.7806 23.229ZM68.3533 75.6365C67.9882 77.3074 66.2845 78.693 64.5807 78.693H62.8364C61.1326 78.693 59.9968 77.3074 60.4024 75.6365L68.4345 38.5926C68.7996 36.9218 70.5033 35.5362 72.2071 35.5362H73.9514C75.6552 35.5362 76.7504 36.9218 76.3854 38.5926L68.3533 75.6365Z" fill="#3E3E3E"/>
<path d="M122.143 23.229L115.734 52.7337L111.231 23.229H98.8992L84.1738 91.0002H97.4794L103.889 61.4547L108.392 91.0002H120.724L135.449 23.229H122.143Z" fill="#3E3E3E"/>
<path d="M163.561 23.229L157.152 52.7337L152.649 23.229H140.317L125.592 91.0002H138.897L145.307 61.4547L149.809 91.0002H162.141L176.867 23.229H163.561Z" fill="#3E3E3E"/>
<path d="M183.844 77.8779L187.089 62.9625H204.046L206.885 49.8403H189.929L192.85 36.3105H210.739L213.579 23.229H181.41L166.685 91.0002H199.3L202.139 77.8779H183.844Z" fill="#3E3E3E"/>
<path d="M248.749 52.4892L252.319 36.0252C254.185 27.3857 249.926 24.6553 246.559 23.392L246.194 23.229H227.412L227.006 23.392C223.071 24.6961 217.635 27.4265 215.729 36.0252L206.561 78.2039C204.695 86.8434 208.954 89.5738 212.321 90.8779L212.646 91.0002H231.387L231.793 90.8779C235.728 89.5738 241.163 86.8434 243.07 78.2039L246.518 62.3513H232.239L228.831 78.0817L228.061 78.693H221.327L220.84 78.0817L229.967 36.1475L230.738 35.5362H237.472L237.959 36.1475L234.43 52.4892H248.709H248.749Z" fill="#3E3E3E"/>
<path d="M257.025 23.229L254.185 36.3105H265.787L253.901 91.0002H268.18L280.066 36.3105H291.627L294.467 23.229H257.025Z" fill="#3E3E3E"/>
<path d="M324.404 23.351L324.039 23.188H305.298L304.892 23.351C300.957 24.6551 295.521 27.3855 293.615 35.9842L284.447 78.1629C282.581 86.8024 286.84 89.5328 290.207 90.8369L290.572 90.9591H309.354L309.76 90.8369C313.695 89.5328 319.131 86.8024 320.997 78.1629L330.165 35.9842C332.031 27.3447 327.771 24.6143 324.404 23.351ZM306.758 78.0406L305.987 78.6519H299.254L298.767 78.0406L307.853 36.1065L308.624 35.4952H315.358L315.845 36.1065L306.758 78.0406Z" fill="#3E3E3E"/>
<path d="M357.749 61.5359C362.09 59.9059 366.187 57.1754 367.769 49.7993L370.771 35.9842C372.637 27.3447 368.378 24.6143 365.011 23.351L364.686 23.188H337.02L322.295 90.9591H336.574L342.497 63.7773H343.186L347.202 90.9591H364.078L357.79 61.5359H357.749ZM356.492 36.1472L353.287 50.8996L352.516 51.5109H345.174L348.663 35.4952H356.005L356.492 36.1065V36.1472Z" fill="#3E3E3E"/>
<path d="M409.836 48.4547L412.554 36.0252C414.42 27.3857 410.16 24.6553 406.793 23.392L406.469 23.229H387.687L387.281 23.392C383.346 24.6961 377.911 27.4265 376.004 36.0252L373.489 47.7212C372.069 54.16 373.57 57.8278 378.438 59.9876L391.338 64.1036L391.987 65.0409L389.147 78.0817L388.377 78.693H381.643L381.156 78.0817L383.874 65.5299H369.595L366.836 78.2447C364.97 86.8842 369.23 89.6146 372.597 90.9187L372.962 91.0409H391.703L392.109 90.9187C396.044 89.6146 401.479 86.8842 403.386 78.2447L406.347 64.5519C407.808 57.9093 406.266 54.0785 401.195 52.1224L388.62 48.3325L387.849 47.3136L390.243 36.229L391.013 35.6177H397.747L398.234 36.229L395.557 48.5362H409.836V48.4547Z" fill="#3E3E3E"/>
<path d="M41.8232 38.0218L33.1016 25.7554H57.0354L41.8232 38.0218Z" fill="#3E3E3E"/>
</g>
<defs>
<clipPath id="clip0_375_2307">
<rect width="413" height="91" fill="white"/>
</clipPath>
</defs>
</svg>
