<svg width="453" height="118" viewBox="0 0 453 118" fill="none" xmlns="http://www.w3.org/2000/svg">
<g clip-path="url(#clip0_375_2228)">
<path d="M142.711 0.00655956L129.317 0.0196787L129.33 26.7433L142.731 26.7368L156.124 26.7237L156.105 0L142.711 0.00655956Z" fill="black"/>
<path d="M106.987 0.0461103L93.593 0.0526699L93.6325 57.9605L93.6653 115.868L107.066 115.862L120.46 115.849L120.42 57.9408L120.387 0.0395508L106.987 0.0461103Z" fill="black"/>
<path d="M142.73 35.6579L129.336 35.6645L129.389 115.842L142.783 115.835L156.177 115.829L156.131 35.6514L142.73 35.6579Z" fill="black"/>
<path d="M205.242 35.6185L165.06 35.6448L165.106 115.822L205.295 115.796L245.476 115.77L245.43 35.5923L205.242 35.6185Z" fill="black"/>
<path d="M42.3319 33.4932C18.9369 33.5063 -0.0131438 52.4372 6.8404e-06 75.7761C0.0131575 99.1151 18.9895 118.02 42.3845 118.007C65.7795 117.993 84.7296 99.0626 84.7164 75.7236C84.7033 52.3847 65.7269 33.4801 42.3319 33.4932Z" fill="black"/>
<path d="M297.527 39.2197C294.949 36.8124 291.188 35.5923 286.355 35.5923C281.522 35.5923 277.761 36.8124 275.204 39.2066C271.751 42.0403 270.002 46.3303 270.002 51.9584C270.002 57.5865 271.751 61.7584 275.184 64.6905C277.761 67.0979 281.522 68.318 286.355 68.318C291.188 68.318 294.943 67.0979 297.52 64.6971C300.946 61.7518 302.682 57.4684 302.682 51.9584C302.682 46.4484 300.939 42.0469 297.527 39.2263V39.2197ZM280.089 44.3821C281.634 42.6438 283.745 41.7583 286.362 41.7583C288.979 41.7583 291.07 42.6438 292.595 44.3887C294.134 46.1466 294.916 48.6983 294.916 51.9584C294.916 55.2185 294.134 57.7833 292.595 59.5347C291.07 61.273 288.972 62.152 286.362 62.152C283.751 62.152 281.641 61.273 280.089 59.5347C278.531 57.7833 277.735 55.2316 277.735 51.9584C277.735 48.6852 278.524 46.1335 280.089 44.3821Z" fill="black"/>
<path d="M331.521 61.2335H314.931V36.5171H307.153V67.4782H331.521V61.2335Z" fill="black"/>
<path d="M342.521 36.5171H334.789V67.4782H342.521V36.5171Z" fill="black"/>
<path d="M355.37 46.6779C355.37 46.3171 355.37 45.871 355.363 45.3331L360.834 67.4717H368.231L373.748 45.3069C373.741 45.8513 373.741 46.3105 373.741 46.6779V67.4782H381.04V36.5171H370.309L364.628 58.9377L358.907 36.5171H348.064V67.4782H355.363V46.6779H355.37Z" fill="black"/>
<path d="M286.717 84.8608H272.034V115.822H279.76V104.986H286.263C289.952 104.986 292.838 104.212 294.844 102.696C296.889 101.148 297.928 98.4982 297.928 94.8248C297.928 91.4532 296.889 88.9147 294.837 87.2813C292.812 85.6742 290.083 84.8608 286.71 84.8608H286.717ZM279.76 90.9219H285.599C287.085 90.9219 288.242 91.2302 289.045 91.8402C289.814 92.424 290.202 93.4408 290.202 94.8642C290.202 96.2876 289.807 97.3437 289.031 97.98C288.236 98.6359 287.079 98.9705 285.599 98.9705H279.76V90.9284V90.9219Z" fill="black"/>
<path d="M310.44 84.8608H302.668V115.822H327.03V109.577H310.44V84.8608Z" fill="black"/>
<path d="M340.503 84.8608L328.312 115.822H336.479L338.734 109.63H350.386L352.575 115.822H361.005L348.926 84.8608H340.503ZM348.249 103.608H340.917L344.632 93.3948L348.249 103.608Z" fill="black"/>
<path d="M384.564 104.841L372.019 84.8608H364.095V115.822H371.394V95.4611L384.281 115.822H391.863V84.8608H384.564V104.841Z" fill="black"/>
<path d="M405.046 102.657H421.189V96.5959H405.046V91.0203H422.629V84.8608H397.432V115.822H423.444V109.577H405.046V102.657Z" fill="black"/>
<path d="M425.252 84.8608V91.0203H435.234V115.822H443.058V91.0203H453V84.8608H425.252Z" fill="black"/>
</g>
<defs>
<clipPath id="clip0_375_2228">
<rect width="453" height="118" fill="white"/>
</clipPath>
</defs>
</svg>
