<svg width="193" height="241" viewBox="0 0 193 241" fill="none" xmlns="http://www.w3.org/2000/svg">
<g clip-path="url(#clip0_367_2212)">
<path fill-rule="evenodd" clip-rule="evenodd" d="M0.282959 63.9087H52.9558V152.466L122.99 63.9087H193L52.9558 241H11.5582H0.282959V63.9087Z" fill="#909090"/>
<path fill-rule="evenodd" clip-rule="evenodd" d="M122.99 152.466H52.9558L69.3497 220.286L122.99 152.466Z" fill="#727272"/>
<path fill-rule="evenodd" clip-rule="evenodd" d="M52.9558 152.466L122.99 241H193L87.9609 108.188L52.9558 152.466Z" fill="#131313"/>
<path d="M5.92068 0.0473633H0V39.0711H25.6877V34.0753H5.92068V0.0473633Z" fill="#231815"/>
<path d="M68.9959 0.0473633H63.0752V39.0711H68.9959V0.0473633Z" fill="#231815"/>
<path d="M125.231 18.4043C123.744 23.188 122.376 28.1367 121.456 32.779H121.315C120.348 28.0896 119.074 23.2823 117.635 18.3572L112.469 0H105.982L117.824 39.0709H124.405L137.072 0.0471301H130.75L125.231 18.4043Z" fill="#231815"/>
<path d="M177.031 34.1225V21.1617H190.712V16.2601H177.031V4.99603H191.538V0.0473633H171.11V39.0711H192.387V34.1225H177.031Z" fill="#231815"/>
</g>
<defs>
<clipPath id="clip0_367_2212">
<rect width="193" height="241" fill="white"/>
</clipPath>
</defs>
</svg>
