<svg width="389" height="134" viewBox="0 0 389 134" fill="none" xmlns="http://www.w3.org/2000/svg">
<g clip-path="url(#clip0_367_2183)">
<path d="M213.639 134V28.7578L276.498 114.302H282.581V5.97163H382.65V128.028H275.879V134H389V133.954V0H276.232V104L214.242 19.6983H207.286V128.028H6.34966V5.97163H214.861V0H0V133.954V134H213.639Z" fill="black"/>
<path d="M68.4044 115.918C81.6576 115.918 93.9825 111.007 103.108 102.09C112.391 93.0178 117.503 80.5552 117.503 67.0016C117.503 53.448 112.391 40.9855 103.108 31.9137C93.9825 22.9964 81.6576 18.085 68.4044 18.085C55.1511 18.085 42.8324 22.9902 33.7009 31.8982C24.4178 40.9546 19.3059 53.3769 19.3059 66.878V67.0016C19.3059 80.5583 24.4178 93.0178 33.7009 102.09C42.8263 111.007 55.1511 115.918 68.4044 115.918ZM25.6587 67.1253V67.0016C25.6587 55.1387 30.096 44.2155 38.1507 36.2471C46.1001 28.3839 56.8438 24.0535 68.4044 24.0535C79.9649 24.0535 90.7086 28.3839 98.6581 36.2471C106.713 44.2155 111.15 55.1387 111.15 67.0016C111.15 78.8645 106.713 89.7878 98.6581 97.7561C90.7086 105.619 79.9649 109.947 68.4044 109.947C56.8438 109.947 46.1063 105.622 38.1507 97.7685C30.096 89.8156 25.6587 78.9325 25.6587 67.1253Z" fill="black"/>
<path d="M134.169 19.6982H127.692V114.302H134.169V19.6982Z" fill="black"/>
<path d="M199.389 114.302L151.346 67.3909L195.202 19.6982H186.321L142.134 67.2982L190.094 114.302H199.389Z" fill="black"/>
<path d="M301.702 25.6235H329.387C342.263 25.6235 348.405 26.8166 354.677 30.5442C359.842 33.5455 363.447 40.3918 363.447 47.1887C363.447 53.9856 359.758 60.6311 354.665 63.5922C348.479 67.2642 342.102 68.5067 329.384 68.5067H308.413V74.4783H329.232C342.003 74.4783 349.937 73.6036 357.837 68.822C364.923 64.5782 369.685 55.834 369.685 47.0651C369.685 38.2962 364.923 29.5489 357.84 25.3113C349.93 20.5266 342 19.6519 329.229 19.6519H295.259V114.255H301.692V25.6235H301.702Z" fill="black"/>
</g>
<defs>
<clipPath id="clip0_367_2183">
<rect width="389" height="134" fill="white"/>
</clipPath>
</defs>
</svg>
