<svg xmlns="http://www.w3.org/2000/svg" xmlns:xlink="http://www.w3.org/1999/xlink" width="41" height="41" viewBox="0 0 41 41">
  <defs>
    <filter id="패스_980" x="0" y="0" width="41" height="41" filterUnits="userSpaceOnUse">
      <feOffset dx="3" dy="3" input="SourceAlpha"/>
      <feGaussianBlur stdDeviation="1.5" result="blur"/>
      <feFlood flood-opacity="0.161"/>
      <feComposite operator="in" in2="blur"/>
      <feComposite in="SourceGraphic"/>
    </filter>
  </defs>
  <g id="그룹_591" data-name="그룹 591" transform="translate(1613.5 757.5) rotate(180)">
    <g transform="matrix(-1, 0, 0, -1, 1613.5, 757.5)" filter="url(#패스_980)">
      <g id="패스_980-2" data-name="패스 980" transform="translate(33.5 33.5) rotate(180)" fill="#151515">
        <path d="M 16 31.5 C 11.85980033874512 31.5 7.967410087585449 29.88772010803223 5.039840221405029 26.96015930175781 C 2.112279891967773 24.03259086608887 0.5 20.14019966125488 0.5 16 C 0.5 11.85980033874512 2.112279891967773 7.967410087585449 5.039840221405029 5.039840221405029 C 7.967410087585449 2.112279891967773 11.85980033874512 0.5 16 0.5 C 20.14019966125488 0.5 24.03259086608887 2.112279891967773 26.96015930175781 5.039840221405029 C 29.88772010803223 7.967410087585449 31.5 11.85980033874512 31.5 16 C 31.5 20.14019966125488 29.88772010803223 24.03259086608887 26.96015930175781 26.96015930175781 C 24.03259086608887 29.88772010803223 20.14019966125488 31.5 16 31.5 Z" stroke="none"/>
        <path d="M 16 1 C 11.99334907531738 1 8.226520538330078 2.560270309448242 5.393400192260742 5.393400192260742 C 2.560270309448242 8.226520538330078 1 11.99334907531738 1 16 C 1 20.00664901733398 2.560270309448242 23.77347946166992 5.393400192260742 26.60659980773926 C 8.226520538330078 29.43972969055176 11.99334907531738 31 16 31 C 20.00664901733398 31 23.77347946166992 29.43972969055176 26.60659980773926 26.60659980773926 C 29.43972969055176 23.77347946166992 31 20.00664901733398 31 16 C 31 11.99334907531738 29.43972969055176 8.226520538330078 26.60659980773926 5.393400192260742 C 23.77347946166992 2.560270309448242 20.00664901733398 1 16 1 M 16 0 C 24.8365592956543 0 32 7.163440704345703 32 16 C 32 24.8365592956543 24.8365592956543 32 16 32 C 7.163440704345703 32 0 24.8365592956543 0 16 C 0 7.163440704345703 7.163440704345703 0 16 0 Z" stroke="none" fill="#707070"/>
      </g>
    </g>
    <path id="패스_33" data-name="패스 33" d="M6,0,0,6l6,6" transform="translate(1599 746) rotate(180)" fill="none" stroke="#e0e0e0" stroke-width="1"/>
  </g>
</svg>
