<svg xmlns="http://www.w3.org/2000/svg" width="1279.113" height="981.757" viewBox="0 0 1279.113 981.757">
  <g id="그룹_444" data-name="그룹 444" transform="translate(-320.887 -3980)">
    <path id="패스_378" data-name="패스 378" d="M369.481,167.854l5.951,9.611,6.889,11.937,1.891,9.533.809,8.5,10.1,12.857-2.526,8.082-.369,7,2.853,3.326-1.011,4.045,3.059,7.866-1.264,6.947-25.149,11.677-3.48,6.958,10.083,7.919,15.888,1.815,6.728,9.422,15.7,3.623,15.173-3.02,12.333-1.175-.548,10.943,8.561,11.413,6.707,6.228,1.373,10.074,3.275,5.062,8.1-3.858,4.491,1.347,5.889-2.453,8.844,7.184,3.206,8.246,1.274,1.637,5.249-3.849h5.961l12.808-8.538,13.658-13.66,11.2-12.6,2.578-12.9,7.744-1.191,4.357-17.714,9.229-2.808,6.866,3.432h3.763l8.506-14.174,9.457-4.054,14.754-.921,3.867.214,9.4-15.581,9.255.32,15.8-10.443,1.347-5.611-2.653-7.953-2.582-5.327-6.228,1.976-5.382,1.17-10.491.262-3.31-6.366-8.978-5.8-7.969-6.857-16.189-17.9-1.667,1.656-6.864,5.251-2.57,7.711-9.415,10.332L554.3,218.915l-2.768,6-26.756,15.607,1.8-11.382-8.331-1.6-13.927,4.178L487.3,218.734l-7.207.848-11.33-5.486-10.387-8.025-3.95-12.843,1.092-8.374-12.658-3.1-13.616-5.633-6.331-10.4-6.6-4.4-3.7-5.749-7.085-1.667-8.877-7.476-12.414-11.583-18.575,10.217-3.756,5.744-1.235-.391L362.4,161.6Z" transform="translate(597.648 4083.471)" fill="#e0e0e0"/>
    <path id="패스_379" data-name="패스 379" d="M402.457,227.373l7.937,1.868,4.258,6.622,6.656,4.436,6.041,9.924,11.822,4.892,16.694,4.047-1.559,11.949,3.119,10.134,8.831,6.825,9.217,4.406,7.813-.919L499.853,304.2l12.583-3.775,14.646,2.817-.855,5.408,15.66-9.135,2.534-5.488,12.237-10.878,8.365-9.2,2.732-8.2,8.018-6.131L577.2,258.2,569.5,246.846l-9.826-5.4-.062.274-.684-.686-.649-.355.1-.189-5.71-5.71-10.827-11.739-10.855-14.022-4.812-13.128-6.788-7.188-12.46-5.784-9.749-11.869-10.822-.065-10.945-2.487L470,157.655l1.43-5.726-3.1-1.161.995-30.32,4.892-2.854-1.453-6.544,1.509-10.058L480.6,93.4l-.619-3.71-3.554-7.106-8.618-7.257-3.946-14.915-11.214-8.073-2.349-18.8-5.546-.792-5.081,1.1-3.535,3.314-5.965-1.546-4.86,1.1-4.2,2.651-3.093,3.535L412.5,49.982l-3.977,1.546-3.093,2.43,1.1,5.523,2.872,7.732,2.651,14.8-1.988,21.429-19.22,10.825-6.186,15.464-12.371,9.058-4.418,1.767.221,5.523,4.639,2.872,1.326,8.395,9.5,19-4.639,11.709,5.965,3.314,2.651,7.069-4.7,11.345L394.647,220.8Z" transform="translate(603.173 4005.131)" fill="#e0e0e0"/>
    <path id="패스_380" data-name="패스 380" d="M240.819,372.929l22.765,18.7,27.689-29.607,3.83-10.342,12.384,6.833,1.276,8.427,12.737-1.757,1.5-5.756,2.692-2.692,3.155-10.367,5.092,5.092,4.432-.792-.615-5.488v-8.96l10.357-11.652,15.2-9.305,7.041-1.225,5.463-1.987,2.153-3.132-.668-4-2.874-7.905,5.228-4.853,3.885-5.3h7.313l2.45-3.563,5.954-7.942L405.366,274l4.233-1.481.942-6.368.8-8.6-3.174-7.213-.3-12.158-2.156-15.708,5.4-10.431,8.922-1.716,8.347-1.827,6.384-9.119h5.569l11.129-1.948,6.689-3.623,5.359-3.27,12.481-6.387-.159-1.036-8.025-8.186-2.43-12.592-9.5-12.371-11.267-7.29-1.326-12.813-5.3-4.2-9.941-15.022-10.162-8.616C406.385,101.36,396.886,87,396.886,87l-24.522,14.36-5.523,11.488c-8.616,9.279-17.673,4.639-17.673,4.639L323.32,135.16l-9.279,1.546c-13.476,9.72-31.591-8.395-31.591-8.395l-4.2-.663-1.1,2.43-.663,3.535,2.43,2.872,3.756,4.86-.221,3.977V149.3l1.1,2.43,2.43,5.3.663,2.872-1.326,1.546-.663,5.965.663,2.651.884,2.651-.884,3.756-3.535,2.209-2.651,3.093-4.418,5.744-.884,4.86,2.209,3.314,4.86,6.186-.442,7.511-1.325,3.756-3.977,3.535-.884,1.988-.221,3.535,1.546,2.872,1.1,2.43-4.2,2.872-3.314,4.2-2.872,4.2-4.639,4.86-.663,4.639-1.546,7.953-1.988,1.988-.221,3.314,1.767,3.314,2.209,3.535,1.1,6.628-.663,3.314L259.7,279.64l-.663,2.872,1.326,2.872,1.767,3.093.221,2.651L260.58,292.9l-3.314,2.872-.442,5.744,2.651,6.407v2.872l-1.1,2.651.663,3.093,2.43,3.535-.663,4.418-3.977,2.43-3.093,3.977.221,9.058.884,3.535-5.965,1.767-5.523.663-1.767-1.546-5.081-.442-3.314,3.977-2.651.663-2.43-3.093h-3.314l-4.2.442-2.209-1.988-1.988-4.2.221-3.756,4.2-4.2-1.546-2.651-4.418-3.756-3.093,2.209-5.3,7.069-3.639,3.178,20.146,19.593Z" transform="translate(476.516 4046.758)" fill="#e0e0e0"/>
    <path id="패스_381" data-name="패스 381" d="M187.99,298.59l17.642,12.348,12.186,9.508,16.431,12.027,15.7,10.376,14.611,11.641L276.747,366.1l15.024,9.736,14.434,11.488,18.407,12.937,9.6,3.2,10.694-2.723,10.54-1.619,12.847-.313,7.935,4.761,10.122,5.062L391.236,407l8.718,1.451,5.583,7.036,8.916,15.733.042-.111,1.829.707h.055l7.259-.582,10.814-.557,3.846-2.642,12.067-13.216,6.762-9.3,3.7-10.168,5.012-3.446,6.456-9.294-.679-3.625-1.191-7.432-1.334-10.335,4.973-6.157-5.8-3.443-7.287,2.119-10.014,1.179L440.286,356.7l-29.492,2.628-12.242,3.584-8.379-.336-17.306-8.8-11.746-5.526,1.55-9.69,2.5-5.454-5.051-3.789-28.2-10.5-2.743-4.572-26.9-14.1-15.613-12.96.383-.463-24.527-20.148L244.493,250.9l-20.567-20-4.5,3.931-1.325,8.837-8.174,5.965-.442,5.081,2.872,1.546v5.965l-1.326,1.1-1.767,6.186-5.3,2.43L193.8,275.922l-14.36,4.2-9.36,5.58,1.972,1.38Z" transform="translate(451.396 4157.18)" fill="#e0e0e0"/>
    <path id="패스_382" data-name="패스 382" d="M608.588,172.168l-8.337,5L588.4,184.444l-5.106-7.508-5.565-6.679-4.9.845c-.021,0-4.22.695-8.423,1.373-2.1.339-4.212.677-5.792.921-.866.134-1.626.253-2.287.309-.753.419-1.727.887-2.946,1.476-2.032.979-4.745,2.276-7.458,3.57-4.836,2.31-9.678,4.611-10.664,5.081l-10.968,7.435,2.591,5.4,3.186,9.556-.087.357,3.367,33.64-7.773,13.322.841,18.271,2.3,13.16,6.9,9.736,11.712,22,3.429,12.8-.9,12.354.638,5.749,7.778,1.414,15.09,1.718,17.056-.647,17.028-3.192,8.66-5.069,3.685-2.381-.136-5.053,1.1-2.209,4.639-6.848,1.546-3.756.442-4.418,1.767-1.988,4.639-2.43,4.2-3.093,5.965-3.093,2.209-6.848,1.988-8.174,1.767-7.069,3.535-7.953,1.767-4.418,5.744-3.535,3.093-1.767,3.093-2.872.663-4.2-.884-5.965-2.651-5.744-2.872-4.2,1.547-3.314,3.535-4.86,4.2-4.86,1.1-4.86.442-9.058-1.1-4.418-3.093-5.081-.442-2.872,2.43-3.314L669.361,195l-.221-7.953-.442-6.628-.442-3.756-5.523-5.081s-7.29-2.872-7.953-3.093-7.511-2.209-7.511-2.209l-10.162,1.1-4.316-1.177-12.059,4.659Z" transform="translate(723.197 4107.539)" fill="#e0e0e0"/>
    <path id="패스_383" data-name="패스 383" d="M421.751,74.52l10.878,7.833,4.007,15.13,8.172,6.882,4.4,8.8,1.151,6.894-6.931,8.317-1.143,7.615,2.082,9.362-5.712,3.331-.772,23.583,3.971,1.488-2.1,8.414,3.418,6.836,8.208,1.866h12.444l10.574,12.873,12.283,5.7,8.236,8.718,4.906,13.382L510.1,244.83l10.583,11.461,3.028-13.46,8.39-12.585-2.029-6.089,7.757-4.653,3.031-6.495,7.808-5.857,8.946,10.323.49-5.68,1.667-5.829v-3.809l-4.782-8.7-1.4-12.232-.424-14.384L545.677,153.2l-1.326-18.119-8.128-14.9,4.231-22.907,3.906-12.152,2.158-15.538.438-14,.461-7.778.284-2.123-1.189-3.271-.221-5.523-.884-4.86-1.988-5.081-3.093-5.744-2.43.663L534.8,24.3l-3.756,2.43-3.314-1.767-2.872-3.314-4.418-3.535-2.43,1.1-5.3,3.977-3.093,4.418-4.86,2.209-7.953.884-1.988,3.535-3.314.884-1.546-2.651-1.546-4.418-1.326-4.418-2.651-7.29-2.43-5.744-4.418-5.965L471.18,1.546,464.332,0l-7.953,2.43-14.36,3.093-7.511,2.43-7.069,1.988L422.8,13.918l-3.535,7.511-1.546,5.081-1.1,6.186-1.988,7.069.663,3.314,2.651,4.2,1.988,4.86-1.152,2.381.468-.058Z" transform="translate(639.046 3980)" fill="#e0e0e0"/>
    <path id="패스_384" data-name="패스 384" d="M504.323,49.784l-.463,14.349-2.31,16.351-3.924,12.209-3.777,20.556,7.78,14.261,1.326,18.112,7.538,13.75.458,15.547,1.253,10.857,4.938,8.978v5.912l-1.8,6.285L514,224.5l-14.029-16.187-2.8,2.1-3.155,6.76-5.5,3.3,1.5,4.516-9.284,13.925-3.651,16.231,12.288,6.76,8.8,12.99.171-.156L517,295.372l7.467,6.4,9.719,6.248,2.434,4.68,6.919-.173,4.493-1.022,9.231-2.936,11.758-7.944c6.52-3.1,15.784-7.515,19.686-9.4l-.078-.315,4.706-1.573.164.4c3.307-.509,10.118-1.617,14.669-2.365l7.895-1.361,7.76,9.335,2.333,3.43,7.566-4.641,9.36-5.617,12.6-1.35,5.852-2.3,2.409-.924,2.1-2.794.221-6.186,2.209-4.418,1.326-2.872,2.43-3.756,5.744-3.535,3.756-3.756,2.209-3.535,2.43-3.093,1.325-9.941.442-3.756v-6.848l-.442-6.848-.442-6.628-1.767-5.744-4.639-5.081-8.395-5.965s-9.279-3.977-9.941-3.977-5.081-.663-5.081-.663l-4.639.442-5.081.884-5.744.884-7.511-.442-3.756-6.848-3.977-5.3,1.988-1.326,1.325-3.756,1.1-3.093.884-3.977-1.767-7.953-4.2-2.209.221-4.2-1.325-3.535-.221-6.186.884-2.43,2.209-3.093,2.43-3.093,3.314-4.418-.884-4.418-.663-8.837,1.546-1.988,1.547-3.535,1.767-4.418.884-3.977v-4.639l-3.093-5.523-3.756-4.418-.442-4.2-1.1-4.418-1.546-3.093-2.651-3.977-.442-5.081,2.43-3.977,2.651-3.977,2.872-5.081,4.418-5.965.663-4.2-.884-6.628-1.767-4.639-4.86-1.988-5.744-2.43-5.523.884-7.069-1.546-5.523-2.43L603.3,24.665l-.884-3.093L599.1,15.386l-5.3-6.628-7.953-.884L580.323,9.2l-4.418.884-7.29,3.535-3.756,1.988-5.744.884-5.3-.442-5.081-1.1-9.5-1.988-5.081,1.1-.884,2.872-1.767,4.2-3.756,4.86-6.628,4.2L516.7,33.281l-3.977,2.209-3.976.884-3.621,3.259-.366,2.738Z" transform="translate(686.975 3986.043)" fill="#e0e0e0"/>
    <path id="패스_385" data-name="패스 385" d="M622.557,275.047l-18.516,3.443-17.652.67-15.664-1.79-5.885-1.068-5.567,11.518L548.62,307.8l-2.363,4.728,3.809,2.094-1.223,7.964-.171.355-12.592,26.289-22.3,47.478-6.721,15.752,8.526,4.349,20.052,8.284,27.077,6.931,8.025-.21,12.787-.428,15.39-5.951L610.845,408.3l15.146-11.583L639.082,382.1l11.452-13.845,6.154-4.514,4.422-8.04,2.845-10.694,6.928-19.826,4.475-6.714-1.092-.551L671.1,313.4l-5.523-2.651-4.639,3.314-4.86,3.314-8.174,6.848-2.872-2.43-3.977-3.977-5.744-3.977-.221-3.756,1.546-7.511,2.43-9.72,1.988-10.162,1.546-7.069-1.1-5.523-3.977-3.535-.712-.143-4.7,3.033Z" transform="translate(709.971 4184.434)" fill="#e0e0e0"/>
    <path id="패스_386" data-name="패스 386" d="M428.384,359.9l.442-8.837,6.449-6.449-.553-4.965-5.415-1.695-14.247-4.134-18.046-16.659-7.027-14.054,11.474-7.342-1.426-6.057.509-9.15,5.019-6.566-4.478-5.972-2.025-11.65,2.469-4.936,2.115-8.466,1.082-6.131-7.718-8.421-9.107,2.678-1.156-17.924,3.489-5.042-8.444-13.022-3.1,1.078-4.346.965-4.713,6.285-3.966,5.774h-7.416l-2.78,3.71-2.835,2.633,1.879,5.3,1.06,6.357-4.327,6.3-7.732,2.766-6.274,1.092-13.667,8.367-8.494,9.556v6.794l1.151,9.982-12.064,2.154-.8-.8-.969,3.181-2.61,2.61L297.753,287l-21.433,2.957-1.667-11.014-4.7-2.593-2.061,5.565L239.284,312.5l13.055,10.837,27.51,14.354,2.561,4.264,27.171,10.115,9.089,6.817-3.982,8.683-.806,5.039,8.211,3.865,16.346,8.314,6.352.254,12.168-3.508,29.651-2.642,10.505-1.751,9.913-1.168,8.847-2.623,1.428.848,4.028-7.248Z" transform="translate(504.499 4129.713)" fill="#e0e0e0"/>
    <path id="패스_387" data-name="패스 387" d="M330.828,397.638l2.442,10.68,3.81,10.613,4.311,3.353,7.419,2.3L354,426.721l7.426,3.749,3.837,2.743,14.694,5.475,16.475,6.764,17.247,5.463,9.842.53,8.985-4.629,13.165-8.192,17.942-11.47,9.687-5.541,3.644-7.844,8.863-9.749,6.893-5.272,12.523-6.4,7.428-13.676,6.187-8.8-5.161-2.467-7.446,2-8.759-2.663-3.554-9.593-.272-9.051-3.881-3.666-4.89-6.191-.824-7.4-6.675-4-9.544,3.093-8.922,4.616h-9.227l-4.277-10.859-5.928-5.671L419.7,311.328l-11.914,1.527-4.2-3-7.538.5-7.585,2.616-6.016,6.451-5.212-8.255-4.3-4.3-6.357-4.088-3.924,4.858,1.034,8.006,1.166,7.285,1.076,5.733-8.273,11.914-4.413,3.033-3.372,9.273L342.4,363.134,329.572,377.08l-5.33,3.664-8.229.422,4.024,1.554Z" transform="translate(563.376 4212.336)" fill="#e0e0e0"/>
    <path id="패스_388" data-name="패스 388" d="M298.715,517.524l22.776-6.426,4.676-9.874,5.238-20.374,5.5-18.787,5.541-11.081-.769-6.916,24.743-5.21,16.4-4.1,8.814-2.81-20.715-22.269-13.7-15.984L346.4,390.45l-10.876-1.207-8.579-4.691-3.531-3.026-24.177-3.3-8.748,5.624-8.648-4.719L277.025,368.3l-37.194-29.64-20.236-15.029L206.317,318.8l-7.808-9.482-1.9.191,2.517,6.541,5.912,11.29.163-.14,10.963,12.912,7.762,15.556,7.912,20.692-2,12.647-9.035,10.323-10.293,6.057-5.254,3.678-3.46,6.919,1.023,7.66,4.259,9.738-1.417,12.3,15.888,8.766,12.679,6.034,11.028,11.677.636,13.352,0,17.8.564,9.494,5.772,16.74,6.281,15.984,8.644,10.265,5.053,1.555,10.68-15.485Z" transform="translate(471.756 4217.355)" fill="#e0e0e0"/>
    <path id="패스_389" data-name="패스 389" d="M712.536,403.409l-26.028-9.473-15.056-7.2v-11.9l10.71-16.067,1.557-11.415-3.858-6.269-15.791-8.948-5.359,12.451-16.977,28.682L636.208,387.4l-5.631,3.754-8.006,10.471-9.667,1.813-8.536,7.965-13.209,6.852-21.714,5.981-15.768,1.214-17.627-4.7-13.421,1.49-.772,4.632L525.9,448.8l2.294,16.051,6.84,11.049,12.594,3.835,22.862,5.857,45.3,13.707,25.563,18.258L656.317,543.3l17.621,25.844,10.712,14.9,10.92,18.969.624.467v-4.049l3.535-1.325,4.639,4.86,11.709,1.1,5.081-.663,11.046-2.43,1.1-2.209-4.639-5.523-8.174-1.546-7.29-5.965-.442-9.72,5.744-3.756,15.685,8.616,6.407-.221L762.69,564.08l2.209-4.639,3.756-7.069,3.314-6.627.884-5.523,5.744-1.1,5.081-5.3.663-5.523,17.452-15.022.221-14.581,1.767-1.767.442-7.069,2.209-1.988-1.767-7.069-3.977-2.872-3.977-7.953-3.314.442-1.988,3.314-3.756-1.546-2.43-5.523-9.72-8.174-2.872,3.535-3.093,4.86-10.162,3.093-13.034-6.186-.442-4.639-1.326-3.977-2.872-5.523,3.756-12.813,4.86-3.535-1.1-5.744,3.39-1.027-12.785-11.509Z" transform="translate(721.328 4234.861)" fill="#e0e0e0"/>
    <path id="패스_390" data-name="패스 390" d="M186.115,423.146l4.2-11.387,5.247-6.3,6,7,2.128,9.224-1.108,2.216,5.489,3.377,6.965,3.483,2.055,11.207v8.768l5.106,9.669,5.233,12.794,5.477,9.462,66.85-10.585.972-11.163-1.868-11.824L302.511,443v-9.012L294.7,423.174l2.043-11.449,3.068-9.747,4.821-10.443,16.035,10.457,10.995,6.048,13.19-1.1,5.219-1.044-4.964-9.512-2.706-7.036-15.986-13.7-23.43-17.566-32.941-23.527-23.507-15.867-16.327-11.661-32.627-14.3-29.046-20.759-20.342-17.4-18.262-21.8-12.845-17.507-10.3-7.962-.078,1.011-1.326,2.209-2.651,1.767-2.43,2.43L99.634,228.2l4.86,8.616,2.209,4.639,2.209,4.639.221,6.186-.884,7.511-3.977,1.767-4.639,5.965-4.639,6.628-.442,3.756-2.872,4.639-4.418,7.069-.442,9.279-1.1-2.43-.442-2.651L82.4,292.041l-2.651,3.535-4.418,4.2-4.639,3.535-6.186,4.86-9.279,5.081-.221,5.081-2.43.221-2.43,4.86,2.872,2.872,1.546,2.651-3.977.663-4.639,4.639-3.314-.442-3.977-1.988-2.872,2.651-.663,3.977,2.43,3.314,3.535,9.279.663,10.383L40.207,359.2l-3.977-2.872-3.314,3.314-5.3,9.279-2.651,2.43-7.732-.884-5.744.663-5.523,3.093-5.523,4.2L0,381.513l23.417,24.964,11.046-.221L47.5,417.081l23.638.884,10.6,7.732.884,6.628,3.093,1.1,3.535,1.1.663,2.651-2.651,1.546-.884,4.86,2.872,3.314,1.988,8.174,2.43.442,15.243-10.6.663-2.43,4.2-4.86,4.639-4.418,3.977-2.872,5.081-3.314,6.186-.221,1.1,1.767,2.209,3.977,4.2,2.209,5.744,2.209,26.952-.442.315,4.245,6.834-9.112Z" transform="translate(320.887 4139.072)" fill="#e0e0e0"/>
    <path id="패스_391" data-name="패스 391" d="M120.865,466.156l8.494,1.543.677,8.826,7.025,8.1,4.379,4.381,5.1-2.978,7.285-6.164,4.885-6.106,6.675-3.641,6.569-5.914,9.028,1.2,5.408-3.784,9.89-2.826,5.935,4.155,7.658-1.916,6.85,9.708,16.5-7.5-5.088,15.266,1.419,2.554,3.916-.871,8.656,1.732,4.791-1.743,3.969-7.8,10.6-12.962,13.647-16.488,1.594-13.826L272.751,420l-1.336-10.014,4.789-9.577,6.617-4.622,9.646-5.675,7.462-8.529,1.538-9.736L294.107,352.6l-7.455-14.908L277.7,327.241l-8.041,1.6-14.936,1.244-12.652-6.969-10.982-7.161-2.176,4.717-2.844,9.1-1.543,8.741,7.5,10.39v12.2l-3.418,5.7,1.668,10.562-1.386,15.936-74.538,11.8L146.8,392l-5.253-12.841L136,368.685v-9.841l-1.477-7.889-4.919-2.471-9.726-5.984,2.427-4.853-1.407-6.1L119.83,330.3l-.645.774L115,342.288l-5.454,9.065-10.6,14.139-.184-.138.2,9.667,6.628,8.837.884,4.2,2.209,2.872,4.2,1.988,3.756,1.767.221,9.941-4.2,3.756-2.209,5.523-1.1,9.279-1.1,10.383-2.651,5.081-2.43,2.43v5.965l2.651,1.1,1.326,2.43.884,6.628-3.093-.221-1.546,4.86,1.1,4.639,1.23.491.163-2.031Z" transform="translate(396.672 4222.445)" fill="#e0e0e0"/>
    <path id="패스_392" data-name="패스 392" d="M710.345,600.074,706.2,584.085l-6.912-6.912-3.987-9.107-9.515-5.71.986-12.806-.822.307-10.275,3.216-8.692-2.174-3.31,3.282-10.919,8.49-17.772,6.721-20.065,4.788-14.011-.041L589.939,572.2,573.878,553.04l-9.068-12.7-8.768-26.3-9.337,2.4-14.448.688-5.27-17.788-8.8-22.277-14.174-32.5-8.837-25.331-8.922-23.274-4.5-20.234-6.583-4.83-7.538,4.71-7.886,9.577-5.426,8.14h-5.622l-3.589,7.684-8.976,9.625-11.831,4.139L406.588,432.5l-11.164,3.282-12.007-1.232-7.674-.493-5.539,6.725,6.65,5.6,9.673,8.383.843,9.277-6.566,3.582.532,13.812L380.018,500.5l-2.808,8.428-.007,16.253-.947,13.253,3.206,19.877,5.412,10.282,12.31,9.229.65,14.982-1.182,13.018v6.9l2.133-1.5,14.36-11.93,6.848-.884,5.523-6.628-.442-4.2-3.756-5.081.884-2.872,18.336.663,1.547,5.523,6.407,14.8,9.72,14.139L479.2,626.9l3.756-3.535-.221-4.418,3.976-1.325,3.093,3.756,3.977-.221,5.965-2.651,14.8-11.488,1.546-7.511,9.058-14.581,3.535.442,7.732,5.965-1.326,3.535-1.767,9.72,4.639,5.523,1.546,5.744,2.651,3.314-7.29,6.628,1.326,5.081,7.511,10.162,1.1,4.2-3.977,2.43.884,5.523,3.977,1.767.884,3.756-3.977,5.523-5.3,8.616,1.546,9.058,7.069,1.767,9.279,2.43,7.069,7.511,13.476,2.209,72.9-.663,8.837-8.174,1.546-3.535-6.848-4.639-.442-8.395,16.127-.442,6.186,3.977,8.837-.884,7.732-11.93,7.732-.442,3.535-5.744.663-15.464,5.081-6.186v-4.2l2.651-.663,8.837-8.395,2.651-4.418.442-7.069.01-.159-5.707-2.853Z" transform="translate(604.96 4264.602)" fill="#e0e0e0"/>
    <path id="패스_393" data-name="패스 393" d="M748.964,572.851l-10.525-14.618-17.815-26.139-14.443-24.836L682.259,490.17,637.9,476.745l-22.864-5.859-14.621-4.448-8.476-13.693L589.507,435.7l-4.19-22.74,1.029-6.182-5.394-5.392-7.52-5.788-18.562-12.64-11.8-12.356-23.131-4.657L500.5,358.877l-16.265-5.226-16.111-3.335-9.284,4.128-7.444,8.572-12.826,12.242-6.431,8.146,6.838,5.014,4.885,21.988L452.63,433.2l8.831,25.314,14.1,32.311,8.948,22.693,4.121,13.911,10.016-.477,13.328-3.506L522.06,553.7l8.545,11.965,14.632,17.445,8.835,1.559h13l18.972-4.6,16.557-6.281,10.16-7.9,5.069-5.07,10.159,2.541,8.713-2.724,8.467-3.18L643.8,575.285l8.158,4.894,4.263,9.743,7.227,7.227,4.1,15.823,4.436,3.946,3.1,1.552.037-.518,8.174-5.744H689.7l13.255-.663,13.918.442,10.162,3.314,9.72,9.5h3.977l2.872-3.093,1.988-4.2,2.872-9.5,6.628-1.988,9.72-8.837.041-1.167-4.5-3.372Z" transform="translate(652.486 4248.813)" fill="#e0e0e0"/>
    <path id="패스_394" data-name="패스 394" d="M494.31,545.325l-.527-12.119-11.256-8.444-6.371-12.1-2.6-16.122-9.987,1.417L445.3,499.217l-26.455-25.807,3.342-6.018-1.942-5.343-5.516-18.978,1.029-7.2-3.1-2.168-5.534,3.558v6.506h-14.22l-21.934-6.35-11.327,3.966-9.6.6-11.664,2.457-13.427-4.028-4.592-7.808-3.248,3.572-5.118,9.6-15.887,3.814L282.574,452.4l-9.236,8.08-13.368,5.47-16.154,5.516-.392-1.147-5.873,11.162,15.7-5.542,9.436,4.717.6,8.922,9.526,5.359v13.165l-10.616,5.59,2.655,7.967,7.08,8.167,8.2,5.466-1.37,8.216,2.384,9.533-2.078,8.317,5.9,4.217,15.855-2.441,14.991,20.623,7.036,7.677.523,12.537,1.359,4.076,11.93,10.825,9.72,9.941-.442,11.267,3.093,3.535,8.395,2.209,2.872-3.535,4.639-1.325,6.407.221.884-2.43,9.72-2.651,5.081-3.093,4.2,1.988h12.15l6.407-.884,4.418-4.639,10.383-.442,1.767-3.314,2.209-5.081.663-7.29,3.314-3.535,12.592-3.756,11.267-1.546,4.418-2.209,1.767-5.965,5.523-7.069,8.395-7.732,4.418-5.523.221-6.186,6.628-.884,5.378-.693.011-10.15Z" transform="translate(503.17 4311.953)" fill="#e0e0e0"/>
    <path id="패스_395" data-name="패스 395" d="M351.94,575.581l-13.2-18.142-14.78,2.276-10.6-7.57L316,541.612l-2.329-9.316.986-5.924-5.94-3.961-8.238-9.507-4.413-13.239,11.769-6.193v-6.866l-9.324-5.245-.583-8.752-4.7-2.352-18.969,6.695,0-.007-1.893,3.6-5.613-1.606-17.573,3.031L229.85,468.248l-20-16.567-16.869-1.69.2-1.992-.894.163-5.965-.663L185,450.151l1.767,1.326.884,11.93,5.523,10.162v5.081l6.407,11.488L223.44,522.17,223,524.821l-3.093-.221-2.209,1.326-.221,3.314,9.058,8.395,7.732.663-.663,2.651-5.081.663-2.209,3.756,1.546,3.093,1.326,11.046,1.988,1.325,3.093,3.756,4.418,5.965,2.872,5.081,3.535.221,10.162,10.162-.221,7.069,2.651,2.872,5.744,9.058,2.872,7.29,1.326,11.046.221,13.918,40.207,1.1.442-2.872,2.43-6.406,3.535-5.523,6.848-1.767,9.72-.442,2.43-1.547,6.186-9.941,4.418-9.279,4.86-4.86,6.848-7.069,2.381-1.686-.2-4.819Z" transform="translate(462.846 4323.385)" fill="#e0e0e0"/>
    <path id="패스_396" data-name="패스 396" d="M814.242,353.2l-9.058-5.523-.221-4.86-.221-11.046v-8.174l-2.872-7.29-3.535-5.3-.884-6.628,1.767-7.511-2.209-5.744-4.2-9.058-6.849-12.151-4.418-12.15,2.43-4.2-4.639-3.314-5.3,2.872-4.418,2.651-1.547-1.767-2.047-.758-10.6,9.088-7.273,10.906L734.025,280,720.746,287.5,708.3,297.555l-7.223,4.6-16.632-1.234-14.368.576-8.133,1.626-22.611,14.7-17.863,30.54-17.954,41.715L621,399.977l5.569,9.047-1.979,14.5-10.5,15.745v6.954l11.926,5.7,25.8,9.385,28.226,12.006,13.8,12.415v-7.057l8.837-6.628,3.093-17.894L719.027,440.9l.221-6.186,1.546-3.977,4.418-1.767,1.767-4.639-.884-3.756,1.546-1.767,2.43-1.767,1.325-4.2-2.43-1.1-.663-4.418,1.767-1.988,4.418-7.732L747.3,382.138l3.977-.221,1.1,3.314,5.965-1.767,11.709-1.767,3.093-1.1,11.267,1.546,1.1-3.314,1.546-3.093,9.72-1.767,4.639,2.651,7.069,4.2V377.94l-1.767-5.744-.442-5.3,2.872-4.2,4.2-1.1,2.651-2.651Z" transform="translate(783.99 4172.027)" fill="#e0e0e0"/>
    <path id="패스_397" data-name="패스 397" d="M311.521,508.594,328.8,520.859,345.4,518l2.635.753,9.475-18.006-6.122-1.882-10.21-12.124-6.638-16.9L328.49,452.3l-.612-10.378,0-17.829-.539-11.265-9-9.529-11.924-5.678-14.7-8.107-24.336,29.55-4.464,8.927-8.17,2.973-9.017-1.8-6.688,1.483-4.471-8.05,1.981-5.942-9.423,4.282-7.289-10.323-6.481,1.619-5.846-4.091-6.606,1.886-6.373,4.463-8.646-1.152-5.486,4.839-6.012,3.28-4.738,5.841-8.034,6.748-8.835,5.152-7.465-7.472-8.232-9.5-.5-6.493-4.337-.786L119.116,413.9l-5.754,2.983-.884,9.72-1.1,5.744-5.081,5.081-3.535,4.2-1.546,4.418-4.2.884-3.756,2.209-7.069-.221-2.43,4.418-.884,5.744,2.209,5.3,2.872,4.2-.442,5.081,6.407,5.744,3.093,1.988,4.418-1.1,1.988-1.546,5.081,1.546,5.744,3.535,1.326,5.3-3.535,2.872-8.616,4.86-.663,2.651,1.326,7.732.663,9.72-1.1,4.639-6.848,1.325L93.7,526.9l-1.546,6.628-2.209-.221-1.326,4.2,3.314,2.43,4.639,4.418,4.639.663,3.977-3.314.442-2.43,2.43-5.081,3.093-1.1,2.209,3.756H116.9l.884-2.872,4.2-.663,3.093,3.756h5.3l2.43-2.651,8.174-5.081,2.209.884,4.86,2.43,2.651,4.2,5.744-.884,1.1-2.209,3.756.442,4.639-1.988,6.848.884L180.3,541.7l9.279.442,1.1-4.639-3.977-1.547-.884-3.314,4.418-3.756-.442-9.5,2.43-6.848,12.592,1.326,9.058-7.732v-4.2l3.093-2.209,5.744-.663,2.209-3.314,6.848-8.174,4.639-6.407,6.628-3.093,8.616-6.407,3.756,1.1,11.488,7.069.221,7.29,2.651,1.1h2.872l1.1-1.767,2.209.663-.235,2.464,14.634,1.462Z" transform="translate(384.48 4278.893)" fill="#e0e0e0"/>
    <path id="패스_398" data-name="패스 398" d="M453.371,424.185l-3.883,2.771-12.672-7.335-12.949-8.238-51.023-26.093-4.217.47-17.005,5.855-15.906,4.123-13.654,3.105-10.335-2.586-4.83,9.666-5.235,18.03-5.452,21.017-5.818,12.281-23.175,6.536-14.773,22.73-10.4,15.081,12.622-4.307,12.4-5.078,9.618-8.414,14.819-3.089,13.49-3.238,4.53-8.321,8.314-9.144,7.188,12.223,10.141,3.04L346.078,473l9.061-.567,12.237-4.282,22.839,6.612h8.165v-4.1l10.961-7.046,8.683,6.078L416.7,479l5.143,17.712,2.715,7.451-2.548,4.588,21.853,21.319,15.8-1.09,9.606-1.371.984-13.759V497.017l2.971-8.92,1.149-17.785-.645-16.822L480.12,450l-.336-3.685-8.029-6.956-11.163-9.4Z" transform="translate(506.615 4275.648)" fill="#e0e0e0"/>
    <path id="패스_399" data-name="패스 399" d="M322.972,204.578l3.307,7.515-.947,10.113-1.3,8.824,10.1,15.57-4.463,6.446.61,9.468,5.917-1.741,11.721,12.787-1.592,8.982-2.409,9.379-1.819,3.639,1.508,8.676,6.126,8.165-6.467,8.458-.376,6.757,2.11,8.966-10.62,6.8,4.461,8.92,16.417,15.155,13.1,3.8L377.122,374l.4,3.566,10.286-4.646,19.92.025,19.674,2.623,16.019-.422,7.889-3.736,11.544-5.291,13.7,4.111,15.713-1.7,7.368-1.384,14.987,1.817L526.1,370.6l9.553-5.8,0-20.6h-3.7l-8.006,5.871-4.911-6.316-2.98-7.66-5.295-4.3-4.715,1.964-4.346-1.3-10.457,4.98-6.445-9.961-1.278-9.367-5.807-5.452-9.853-13.137.336-6.732-6.09.58-15.89,3.179-18.766-4.332-6.527-9.135-15.038-1.72-14.662-11.52,6.241-12.483,24.336-11.3.5-2.771-3.126-8.04.756-3.026-2.45-2.858.615-10.106,1.792-5.737-9.339-11.887-.945-9.918-1.656-8.275-6.408-11.111-5.495-8.876-7.939-7-1.744-11.352-10.83,5.541-5.215,3.187-7.569,4.1L350.085,160.1h-3.038l-5.988,8.556-10.438,2.282-6.46,1.244-3.443,6.654,1.972,14.483Z" transform="translate(566.987 4091.336)" fill="#e0e0e0"/>
    <path id="패스_400" data-name="패스 400" d="M463.866,332.9l8.856-3.623,10.014-5.917,10.609-1.423h11.267L525.55,333.1l9.754,11.972,17.525,10.258,21.906,8.591,14.529.382,2.006-4.01,10.636-19.944,4.878-10.1-.537-.1L605.119,320l.868-11.949-3.119-11.641L591.6,275.4,584.285,265.1l-2.57-14.842-.921-20,7.693-13.188-2.223-22.235-16.758,11.074-7.826-.269-9.452,15.643-6.734-.375-13.527.846-7.038,3.015-9.169,15.28h-8.018L501.65,237l-4.319,1.315-4.482,18.221-7.575,1.166-2.133,10.668-12.26,13.792-14.354,14.289-11.191,7.46v21.365l11.348,6.484Z" transform="translate(662.611 4129.504)" fill="#e0e0e0"/>
    <path id="패스_401" data-name="패스 401" d="M497.138,276.171l-14.119-1.711-6.871,1.279-16.882,1.826-12.811-3.844-9.694,4.445-8.87,4.2-17.56.461-19.918-2.655H372.161l-10.813,4.883.2,1.834-6.806,6.806-.442,8.837-7.971,7.971-3.74,6.733,7.064,4.194-.133.166,6.564,4.273,5.081,5.171,1.7,2.692,2.229-2.389,9.5-3.275,10.136-.677,4.049,2.893,11.062-1.419,22.051,7.455,7.622,7.289,3.379,8.584h4.326l8.368-4.289L457.638,344l11,6.6.944,8.5,3.049,3.862,10.722-10.224,6.256-7.388,6.263-4.63,2.16-4.319,1.562-13.114,9.872-6.7,5.977-.249,2.5-7.759,7.064-10,.813-2.607-6.014-4.92-.779-18.184-8.58,5.208Z" transform="translate(583.772 4189.379)" fill="#e0e0e0"/>
    <path id="패스_402" data-name="패스 402" d="M607.4,312.053l-12.983-.341-23.338-9.188-18.527-10.844-9.689-11.887L524.039,269.75h-9.761l-9.012,1.228-9.605,5.643-10.406,4.258-9.607-1.516-9.455-5.4.726,16.88,6.946,5.684-2.13,6.818-7.076,10.026-3.39,10.505-8.16.339-6.624,4.493L445.1,340.334l-3.142,6.283-7.029,5.2-5.9,7.046L418.29,369.106l2.107,1.967.315,10.39,2.338,6.313,4.789,1.456,7.873-2.117,7.38,3.611,4.627-8.863,7.234-7.232,19.448-.315,9.088.627,21.019,8.708,22,8.213,25.165,8.778,12,3,6.792,3.754,6.58-15.417L599.4,344.4l12.43-25.953.542-3.522-5.026-2.766Z" transform="translate(641.858 4186.99)" fill="#e0e0e0"/>
    <path id="패스_403" data-name="패스 403" d="M1023.1,370.574s17.673-40.649,62.447-47.718c0,0,29.454,2.356,43.593-9.425,0,0,31.171-28.226,46.5-24.75l-8.441,7.213-5.005,7.506-3.109,3.39-11.647,5.572L1133.73,320.1l-12.617,10.168-5.613,3.57-3.5-.26a74.941,74.941,0,0,0-21.949-.452l-4.606.184-9.749,1.916-6.341,4.121a64.51,64.51,0,0,0-12.384,8.048l-5.792,3.766-2.578,4.409a92.894,92.894,0,0,0-14.3,22.659l-2.492,6.544-24.619,57.2-17,28.721-2.879,7.3c-2.061,3.34-3.839,6.034-5.168,7.759l-2.115,1.41-7.306,9.558-9.183,1.723-9.137,8.529-11.806,6.182-19.358,5.378a91.113,91.113,0,0,1-18.785.733l-14.874-3.964-15.135,1.679-5.58-5.578-8.045-6.214L842.79,492.986l-12.757-13.361L815.5,476.717c-12.393-4.314-30.623-10.5-32.166-10.116l-18.85-5.892a31.183,31.183,0,0,0-9.406-1.357l-3.264-.679L748,460.366a20.652,20.652,0,0,0-4.89,2.172l-3.222,1.433-7.962,9.188-12.87,12.285-1.251,1.58-5.168,4.908-8.672,7.372-3.116,1.946-8.519,10.35-4.086,6.1h-6.159l-4.664,9.985-5.876,6.3a18.154,18.154,0,0,1-6.626,2.13s-10.017,0-15.319,11.193a33.823,33.823,0,0,1-12.378,11.143l-5.541,1.628-11.069-1.135-10.484-.675-2.381,2.891a9.959,9.959,0,0,0-3.508,3.232,7.643,7.643,0,0,1-2.176,1.958l-10.1-8.082-2.05,1.462a8.42,8.42,0,0,0-3.1,1.2l-8.837-5.115-12.96-8.246L512.96,520.938l-.709-.361-4.2.465-1.607-.833s-5.2,2.4-12.6,5.239L488.6,527.24l-15.728,4.077-12.343,2.807-9.383-2.347-.118-1.078,20.13-4.242,16.657-4.167,16.944-5.394-26.34-28.315L463.773,471.5l-12.527-3.757-9.892-1.14c-.364-.1-.742-.21-1.124-.323l-6.5-3.5-4.5-3.858-27.664-3.77-2.329,1.5-.6-.058s-.262.371-.725.91l-4.1,2.632-4.312-2.351L384.893,447.4l-38.281-30.5-20.929-15.547-12.35-4.491c-.193-.157-.4-.32-.61-.49L304.348,386.2l-7.3.732.14,1.4-14.782-12.665L258.8,357.955l-33.049-23.6L202.24,318.485l-16.5-11.783-32.627-14.3-28.548-20.392-19.775-16.866L86.78,233.653,73.6,215.679,64,208.256l-.217.177a7.267,7.267,0,0,0-2.112-1.043s6.481-12.371,20.029,0c0,0,40.06,53.609,63.624,55.376,0,0,31.812,17.085,43.6,26.51,0,0,30.045,27.1,44.772,22.387l12.189-2.814,3.455,2.824,18.776,13.5,17.562,12.29,12.142,9.475,16.6,12.15,15.514,10.244,14.248,11.343,12.287,11.7,15.3,9.955,14.457,11.5,19.17,13.478L417,431.178l12.61-2.213,9.445-2.289,11.023-.27,6.7,4.023,12.356,6.186,5.719-1.905,5.419.9,3.947,4.934,10.673,18.833h3.637l13.3,5.134,9.238,12.773,2.237,9.782,4.473,12.518,6.292,4.894,8,2.462,4.807,1.979,6.8,3.4,4.24,3.029,15.272,5.689,16.495,6.774,17.88,5.672,12.272.748,10.358-5.337,13.471-8.37,17.855-11.419,11.042-6.309,4.017-8.653,7.82-8.656,6.1-4.712,13.768-7.038,7.978-14.727,7.721-10.991.026.014.1-.2,1.12-1.6-.2-.168,4.68-8.962,5.138-5.141,17.078-.276,8,.551,20.309,8.411,22.145,8.266,25.331,8.837,11.677,2.93,6.659,3.68-.034.076,2.2,1.122,2.062,1.142.039-.069,8.729,4.454,20.519,8.485,28.325,7.278,22.488-.689,17.748-6.861,8.405-12.142,3.962-5.631,14.7-11.24,13.7-15.227L995.7,421.848l6.829-5.009,5.143-9.351,3.086-11.329,6.486-18.806,4.639-6.962Z" transform="translate(368.206 4134.92)" fill="#e0ecfa"/>
  </g>
</svg>
