<svg width="14" height="14" viewBox="0 0 14 14" fill="none" xmlns="http://www.w3.org/2000/svg">
<g clip-path="url(#clip0_52_24806)">
<path d="M9.61241 6.88741C9.59292 6.95535 9.54743 6.99968 9.49695 6.99968H8.12766V11.5415C8.12766 11.6417 8.07168 11.7231 8.0027 11.7231H6.00337C5.93439 11.7231 5.8784 11.6417 5.8784 11.5415V6.99966H4.50387C4.45339 6.99966 4.4079 6.95533 4.38841 6.88775C4.36916 6.81981 4.37965 6.74168 4.4154 6.68972L6.90831 3.05338C6.9318 3.01923 6.96355 2.99996 6.99678 2.99996C7.03002 2.99996 7.06177 3.01923 7.08525 3.05302L9.58542 6.68936C9.62117 6.74134 9.63191 6.81945 9.61241 6.88741Z" fill="#159828"/>
</g>
<circle cx="7" cy="7" r="6.5" stroke="#159828"/>
<defs>
<clipPath id="clip0_52_24806">
<rect width="6" height="8.72316" fill="white" transform="matrix(1 0 0 -1 4 11.7231)"/>
</clipPath>
</defs>
</svg>
