<svg id="그룹_392" data-name="그룹 392" xmlns="http://www.w3.org/2000/svg" xmlns:xlink="http://www.w3.org/1999/xlink" width="291.22" height="115.552" viewBox="0 0 291.22 115.552">
  <defs>
    <clipPath id="clip-path">
      <rect id="사각형_1254" data-name="사각형 1254" width="291.22" height="115.552" fill="none"/>
    </clipPath>
  </defs>
  <g id="그룹_391" data-name="그룹 391" clip-path="url(#clip-path)">
    <path id="패스_304" data-name="패스 304" d="M38.767,75.164,0,0H4.249L38.767,66.726,73.293,0h20.46V71.364H164.12a33.794,33.794,0,0,0,0-67.589H108.026V0H164.12a37.582,37.582,0,0,1,0,75.164H89.939V3.784H75.624Z" fill="#fff"/>
    <path id="패스_305" data-name="패스 305" d="M253.638,75.164A37.582,37.582,0,1,1,291.22,37.582a37.582,37.582,0,0,1-37.582,37.582m0-71.377a25.185,25.185,0,1,0,.006,0h-.006" fill="#fff"/>
    <text id="Digital_Art_OTT_Trading_Platform" data-name="Digital Art OTT Trading Platform" transform="translate(0 110.558)" fill="#fff" font-size="18.428" font-family="Roboto-Regular, Roboto"><tspan x="0" y="0" letter-spacing="0.05em">Di</tspan><tspan y="0" letter-spacing="0.049em">g</tspan><tspan y="0" letter-spacing="0.05em">ital </tspan><tspan y="0" letter-spacing="0.049em">A</tspan><tspan y="0" letter-spacing="0.074em">r</tspan><tspan y="0" letter-spacing="0.05em">t</tspan><tspan y="0" letter-spacing="0.049em"> </tspan><tspan y="0" letter-spacing="0.036em">O</tspan><tspan y="0" letter-spacing="0.057em">T</tspan><tspan y="0" letter-spacing="0.03em">T </tspan><tspan y="0" letter-spacing="0.013em">T</tspan><tspan y="0" letter-spacing="0.03em">r</tspan><tspan y="0" letter-spacing="0.05em">adin</tspan><tspan y="0" letter-spacing="0.049em">g</tspan><tspan y="0" xml:space="preserve" letter-spacing="0.05em"> Plat</tspan><tspan y="0" letter-spacing="0.049em">for</tspan><tspan y="0">m</tspan></text>
  </g>
</svg>
