<svg xmlns="http://www.w3.org/2000/svg" xmlns:xlink="http://www.w3.org/1999/xlink" width="160" height="41.296" viewBox="0 0 160 41.296">
  <defs>
    <clipPath id="clip-path">
      <rect id="사각형_7" data-name="사각형 7" width="160" height="41.296" fill="none"/>
    </clipPath>
  </defs>
  <g id="그룹_1" data-name="그룹 1" transform="translate(0 -0.006)">
    <g id="그룹_2" data-name="그룹 2" transform="translate(0 0.006)" clip-path="url(#clip-path)">
      <path id="패스_29" data-name="패스 29" d="M21.3,41.3,0,0H2.334L21.3,36.66,40.267,0H51.505V39.213H90.171a18.567,18.567,0,0,0,0-37.134H59.351V0H90.171a20.648,20.648,0,0,1,0,41.3H49.413V2.079H41.549Z" transform="translate(0 -0.002)" fill="#002e85"/>
      <path id="패스_30" data-name="패스 30" d="M402.726,41.3a20.648,20.648,0,1,1,20.648-20.648A20.648,20.648,0,0,1,402.726,41.3m0-39.217a18.567,18.567,0,1,0,18.565,18.569A18.567,18.567,0,0,0,402.726,2.079" transform="translate(-263.374 -0.002)" fill="#002e85"/>
    </g>
  </g>
</svg>
